<svg xmlns="http://www.w3.org/2000/svg" xmlns:xlink="http://www.w3.org/1999/xlink" width="500" zoomAndPan="magnify" viewBox="0 0 375 374.999991" height="500" preserveAspectRatio="xMidYMid meet" version="1.0"><defs><clipPath id="8aa7a08d4e"><path d="M 0 119.316406 L 149 119.316406 L 149 255.816406 L 0 255.816406 Z M 0 119.316406 " clip-rule="nonzero"/></clipPath></defs><rect x="-37.5" width="450" fill="#ffffff" y="-37.499999" height="449.999989" fill-opacity="1"/><rect x="-37.5" width="450" fill="#ffffff" y="-37.499999" height="449.999989" fill-opacity="1"/><g clip-path="url(#8aa7a08d4e)"><path fill="#ff7d1a" d="M 142.667969 144.140625 L 26.339844 144.140625 L 24.613281 124.882812 C 24.582031 124.503906 24.511719 124.132812 24.410156 123.769531 C 24.308594 123.40625 24.171875 123.054688 24.003906 122.714844 C 23.835938 122.375 23.640625 122.054688 23.410156 121.753906 C 23.183594 121.453125 22.929688 121.171875 22.652344 120.917969 C 22.371094 120.664062 22.070312 120.433594 21.75 120.234375 C 21.429688 120.035156 21.089844 119.867188 20.738281 119.730469 C 20.386719 119.59375 20.023438 119.492188 19.652344 119.421875 C 19.28125 119.351562 18.90625 119.316406 18.527344 119.316406 L 6.117188 119.316406 C 5.71875 119.316406 5.320312 119.355469 4.925781 119.4375 C 4.53125 119.515625 4.152344 119.628906 3.78125 119.78125 C 3.410156 119.9375 3.058594 120.125 2.722656 120.347656 C 2.390625 120.570312 2.082031 120.824219 1.796875 121.109375 C 1.515625 121.390625 1.261719 121.699219 1.039062 122.03125 C 0.816406 122.367188 0.628906 122.71875 0.472656 123.089844 C 0.320312 123.460938 0.203125 123.84375 0.125 124.234375 C 0.046875 124.628906 0.0078125 125.027344 0.0078125 125.425781 C 0.0078125 125.828125 0.046875 126.226562 0.125 126.617188 C 0.203125 127.011719 0.320312 127.394531 0.472656 127.765625 C 0.628906 128.136719 0.816406 128.488281 1.039062 128.820312 C 1.261719 129.15625 1.515625 129.464844 1.796875 129.746094 C 2.082031 130.03125 2.390625 130.285156 2.722656 130.507812 C 3.058594 130.730469 3.410156 130.917969 3.78125 131.070312 C 4.152344 131.222656 4.53125 131.339844 4.925781 131.417969 C 5.320312 131.496094 5.71875 131.535156 6.117188 131.535156 L 12.9375 131.535156 L 19.964844 209.828125 C 20.464844 215.472656 23.511719 221.59375 28.765625 225.753906 C 19.296875 237.847656 27.949219 255.675781 43.359375 255.675781 C 56.140625 255.675781 65.15625 242.929688 60.769531 230.847656 L 94.214844 230.847656 C 89.835938 242.914062 98.828125 255.675781 111.632812 255.675781 C 112.238281 255.675781 112.84375 255.648438 113.449219 255.585938 C 114.050781 255.527344 114.652344 255.4375 115.246094 255.316406 C 115.839844 255.199219 116.429688 255.050781 117.007812 254.875 C 117.589844 254.699219 118.160156 254.496094 118.71875 254.261719 C 119.277344 254.03125 119.828125 253.769531 120.359375 253.484375 C 120.894531 253.199219 121.414062 252.886719 121.917969 252.550781 C 122.425781 252.210938 122.910156 251.851562 123.378906 251.464844 C 123.847656 251.082031 124.296875 250.675781 124.726562 250.246094 C 125.15625 249.816406 125.5625 249.367188 125.945312 248.898438 C 126.332031 248.429688 126.691406 247.945312 127.027344 247.441406 C 127.367188 246.9375 127.679688 246.417969 127.964844 245.882812 C 128.25 245.347656 128.507812 244.800781 128.742188 244.238281 C 128.972656 243.679688 129.179688 243.109375 129.355469 242.527344 C 129.53125 241.949219 129.679688 241.359375 129.796875 240.765625 C 129.917969 240.171875 130.007812 239.570312 130.066406 238.96875 C 130.125 238.363281 130.15625 237.757812 130.15625 237.152344 C 130.15625 236.546875 130.125 235.941406 130.066406 235.339844 C 130.007812 234.734375 129.917969 234.136719 129.796875 233.539062 C 129.679688 232.945312 129.53125 232.359375 129.355469 231.777344 C 129.179688 231.199219 128.972656 230.628906 128.742188 230.066406 C 128.507812 229.507812 128.25 228.960938 127.964844 228.425781 C 127.679688 227.890625 127.367188 227.371094 127.027344 226.867188 C 126.691406 226.363281 126.332031 225.875 125.945312 225.40625 C 125.5625 224.9375 125.15625 224.488281 124.726562 224.058594 C 124.296875 223.632812 123.847656 223.226562 123.378906 222.839844 C 122.910156 222.453125 122.425781 222.09375 121.917969 221.757812 C 121.414062 221.417969 120.894531 221.109375 120.359375 220.820312 C 119.828125 220.535156 119.277344 220.277344 118.71875 220.042969 C 118.160156 219.8125 117.589844 219.605469 117.007812 219.429688 C 116.429688 219.253906 115.839844 219.105469 115.246094 218.988281 C 114.652344 218.871094 114.050781 218.78125 113.449219 218.71875 C 112.84375 218.660156 112.238281 218.628906 111.632812 218.628906 L 43.398438 218.628906 C 38.753906 218.628906 34.710938 215.832031 32.96875 211.75 L 130.605469 206.007812 C 131.257812 205.972656 131.882812 205.832031 132.488281 205.59375 C 133.09375 205.355469 133.648438 205.027344 134.148438 204.613281 C 134.648438 204.199219 135.074219 203.714844 135.421875 203.164062 C 135.765625 202.613281 136.019531 202.023438 136.175781 201.394531 L 148.59375 151.738281 C 148.707031 151.285156 148.765625 150.828125 148.773438 150.363281 C 148.78125 149.902344 148.738281 149.441406 148.640625 148.988281 C 148.542969 148.53125 148.398438 148.09375 148.203125 147.675781 C 148.007812 147.253906 147.765625 146.859375 147.480469 146.492188 C 147.191406 146.128906 146.871094 145.796875 146.507812 145.507812 C 146.148438 145.214844 145.757812 144.964844 145.339844 144.761719 C 144.925781 144.558594 144.488281 144.402344 144.035156 144.300781 C 143.585938 144.195312 143.125 144.144531 142.660156 144.140625 Z M 43.351562 243.460938 C 42.949219 243.441406 42.554688 243.382812 42.160156 243.289062 C 41.769531 243.195312 41.390625 243.066406 41.027344 242.898438 C 40.660156 242.730469 40.3125 242.53125 39.984375 242.296875 C 39.65625 242.066406 39.355469 241.804688 39.078125 241.511719 C 38.800781 241.222656 38.550781 240.90625 38.335938 240.570312 C 38.117188 240.230469 37.933594 239.875 37.785156 239.5 C 37.632812 239.128906 37.519531 238.742188 37.445312 238.347656 C 37.367188 237.953125 37.332031 237.554688 37.332031 237.152344 C 37.332031 236.75 37.367188 236.351562 37.445312 235.957031 C 37.519531 235.5625 37.632812 235.179688 37.785156 234.804688 C 37.933594 234.429688 38.117188 234.074219 38.335938 233.738281 C 38.550781 233.398438 38.800781 233.085938 39.078125 232.792969 C 39.355469 232.503906 39.65625 232.242188 39.984375 232.007812 C 40.3125 231.773438 40.660156 231.574219 41.027344 231.40625 C 41.390625 231.242188 41.769531 231.109375 42.160156 231.015625 C 42.554688 230.921875 42.949219 230.863281 43.351562 230.847656 C 43.753906 230.863281 44.148438 230.921875 44.539062 231.015625 C 44.929688 231.109375 45.308594 231.242188 45.675781 231.40625 C 46.042969 231.574219 46.386719 231.773438 46.714844 232.007812 C 47.042969 232.242188 47.347656 232.503906 47.625 232.792969 C 47.902344 233.085938 48.148438 233.398438 48.367188 233.738281 C 48.585938 234.074219 48.769531 234.433594 48.917969 234.804688 C 49.066406 235.179688 49.179688 235.5625 49.257812 235.957031 C 49.332031 236.351562 49.371094 236.75 49.371094 237.152344 C 49.371094 237.554688 49.332031 237.953125 49.257812 238.347656 C 49.179688 238.742188 49.066406 239.128906 48.917969 239.5 C 48.769531 239.875 48.585938 240.230469 48.367188 240.570312 C 48.148438 240.90625 47.902344 241.222656 47.625 241.511719 C 47.347656 241.804688 47.042969 242.066406 46.714844 242.296875 C 46.386719 242.53125 46.042969 242.730469 45.675781 242.898438 C 45.308594 243.066406 44.929688 243.195312 44.539062 243.289062 C 44.148438 243.382812 43.753906 243.441406 43.351562 243.460938 Z M 111.632812 243.460938 C 111.230469 243.441406 110.835938 243.382812 110.445312 243.289062 C 110.054688 243.195312 109.675781 243.066406 109.308594 242.898438 C 108.941406 242.730469 108.59375 242.53125 108.269531 242.296875 C 107.941406 242.066406 107.636719 241.804688 107.359375 241.511719 C 107.082031 241.222656 106.835938 240.90625 106.617188 240.570312 C 106.398438 240.230469 106.214844 239.875 106.066406 239.5 C 105.917969 239.128906 105.804688 238.742188 105.726562 238.347656 C 105.652344 237.953125 105.613281 237.554688 105.613281 237.152344 C 105.613281 236.75 105.652344 236.351562 105.726562 235.957031 C 105.804688 235.5625 105.917969 235.179688 106.066406 234.804688 C 106.214844 234.429688 106.398438 234.074219 106.617188 233.738281 C 106.835938 233.398438 107.082031 233.085938 107.359375 232.792969 C 107.636719 232.503906 107.941406 232.242188 108.269531 232.007812 C 108.59375 231.773438 108.941406 231.574219 109.308594 231.40625 C 109.675781 231.242188 110.054688 231.109375 110.445312 231.015625 C 110.835938 230.921875 111.230469 230.863281 111.632812 230.847656 C 112.035156 230.863281 112.429688 230.921875 112.820312 231.015625 C 113.214844 231.109375 113.589844 231.242188 113.957031 231.40625 C 114.324219 231.574219 114.671875 231.773438 115 232.007812 C 115.324219 232.242188 115.628906 232.503906 115.90625 232.792969 C 116.183594 233.085938 116.433594 233.398438 116.648438 233.738281 C 116.867188 234.074219 117.050781 234.433594 117.199219 234.804688 C 117.351562 235.179688 117.460938 235.5625 117.539062 235.957031 C 117.613281 236.351562 117.652344 236.75 117.652344 237.152344 C 117.652344 237.554688 117.613281 237.953125 117.539062 238.347656 C 117.460938 238.742188 117.351562 239.128906 117.199219 239.5 C 117.050781 239.875 116.867188 240.230469 116.648438 240.570312 C 116.433594 240.90625 116.183594 241.222656 115.90625 241.511719 C 115.628906 241.804688 115.324219 242.066406 115 242.296875 C 114.671875 242.53125 114.324219 242.730469 113.957031 242.898438 C 113.589844 243.066406 113.214844 243.195312 112.820312 243.289062 C 112.429688 243.382812 112.035156 243.441406 111.632812 243.460938 Z M 125.410156 194.078125 L 31.324219 199.601562 L 27.4375 156.367188 L 134.839844 156.367188 L 125.410156 194.070312 Z M 125.410156 194.078125 " fill-opacity="1" fill-rule="nonzero"/></g></svg>