<svg xmlns="http://www.w3.org/2000/svg" xmlns:xlink="http://www.w3.org/1999/xlink" width="500" zoomAndPan="magnify" viewBox="0 0 375 374.999991" height="500" preserveAspectRatio="xMidYMid meet" version="1.0"><defs><g/><clipPath id="6d0ac70610"><path d="M 137 54 L 152 54 L 152 66 L 137 66 Z M 137 54 " clip-rule="nonzero"/></clipPath><clipPath id="c607aaf6cd"><path d="M 86.621094 61.269531 L 286.207031 37.472656 L 300.0625 153.648438 L 100.472656 177.445312 Z M 86.621094 61.269531 " clip-rule="nonzero"/></clipPath><clipPath id="b0d9c68ecf"><path d="M 86.621094 61.269531 L 286.207031 37.472656 L 300.0625 153.648438 L 100.472656 177.445312 Z M 86.621094 61.269531 " clip-rule="nonzero"/></clipPath><clipPath id="5174ae1b65"><path d="M 86.621094 61.269531 L 286.207031 37.472656 L 300.0625 153.648438 L 100.472656 177.445312 Z M 86.621094 61.269531 " clip-rule="nonzero"/></clipPath><clipPath id="95643e326d"><path d="M 136 53 L 154 53 L 154 67 L 136 67 Z M 136 53 " clip-rule="nonzero"/></clipPath><clipPath id="7f5719dc52"><path d="M 86.621094 61.269531 L 286.207031 37.472656 L 300.0625 153.648438 L 100.472656 177.445312 Z M 86.621094 61.269531 " clip-rule="nonzero"/></clipPath><clipPath id="73f1e94344"><path d="M 86.621094 61.269531 L 286.207031 37.472656 L 300.0625 153.648438 L 100.472656 177.445312 Z M 86.621094 61.269531 " clip-rule="nonzero"/></clipPath><clipPath id="88c8c8fd62"><path d="M 86.621094 61.269531 L 286.207031 37.472656 L 300.0625 153.648438 L 100.472656 177.445312 Z M 86.621094 61.269531 " clip-rule="nonzero"/></clipPath><clipPath id="a7d3514f44"><path d="M 98 60 L 274 60 L 274 158 L 98 158 Z M 98 60 " clip-rule="nonzero"/></clipPath><clipPath id="c4b293887d"><path d="M 86.621094 61.269531 L 286.207031 37.472656 L 300.0625 153.648438 L 100.472656 177.445312 Z M 86.621094 61.269531 " clip-rule="nonzero"/></clipPath><clipPath id="3e6421717e"><path d="M 86.621094 61.269531 L 286.207031 37.472656 L 300.0625 153.648438 L 100.472656 177.445312 Z M 86.621094 61.269531 " clip-rule="nonzero"/></clipPath><clipPath id="7710308f24"><path d="M 86.621094 61.269531 L 286.207031 37.472656 L 300.0625 153.648438 L 100.472656 177.445312 Z M 86.621094 61.269531 " clip-rule="nonzero"/></clipPath><clipPath id="961d30a4d3"><path d="M 96 58 L 275 58 L 275 159 L 96 159 Z M 96 58 " clip-rule="nonzero"/></clipPath><clipPath id="807c9dd60c"><path d="M 86.621094 61.269531 L 286.207031 37.472656 L 300.0625 153.648438 L 100.472656 177.445312 Z M 86.621094 61.269531 " clip-rule="nonzero"/></clipPath><clipPath id="c1ad14a5a7"><path d="M 86.621094 61.269531 L 286.207031 37.472656 L 300.0625 153.648438 L 100.472656 177.445312 Z M 86.621094 61.269531 " clip-rule="nonzero"/></clipPath><clipPath id="b245a09e46"><path d="M 86.621094 61.269531 L 286.207031 37.472656 L 300.0625 153.648438 L 100.472656 177.445312 Z M 86.621094 61.269531 " clip-rule="nonzero"/></clipPath><clipPath id="3e17261ebe"><path d="M 110 84 L 148 84 L 148 120 L 110 120 Z M 110 84 " clip-rule="nonzero"/></clipPath><clipPath id="4e11f2d08a"><path d="M 86.621094 61.269531 L 286.207031 37.472656 L 300.0625 153.648438 L 100.472656 177.445312 Z M 86.621094 61.269531 " clip-rule="nonzero"/></clipPath><clipPath id="b226acbd16"><path d="M 86.621094 61.269531 L 286.207031 37.472656 L 300.0625 153.648438 L 100.472656 177.445312 Z M 86.621094 61.269531 " clip-rule="nonzero"/></clipPath><clipPath id="65a7189d50"><path d="M 86.621094 61.269531 L 286.207031 37.472656 L 300.0625 153.648438 L 100.472656 177.445312 Z M 86.621094 61.269531 " clip-rule="nonzero"/></clipPath><clipPath id="4b71ee6919"><path d="M 109 83 L 149 83 L 149 122 L 109 122 Z M 109 83 " clip-rule="nonzero"/></clipPath><clipPath id="bb93dc4c16"><path d="M 86.621094 61.269531 L 286.207031 37.472656 L 300.0625 153.648438 L 100.472656 177.445312 Z M 86.621094 61.269531 " clip-rule="nonzero"/></clipPath><clipPath id="48eca11d9d"><path d="M 86.621094 61.269531 L 286.207031 37.472656 L 300.0625 153.648438 L 100.472656 177.445312 Z M 86.621094 61.269531 " clip-rule="nonzero"/></clipPath><clipPath id="488c011521"><path d="M 86.621094 61.269531 L 286.207031 37.472656 L 300.0625 153.648438 L 100.472656 177.445312 Z M 86.621094 61.269531 " clip-rule="nonzero"/></clipPath><clipPath id="fcfe2a67c4"><path d="M 153 125 L 180 125 L 180 152 L 153 152 Z M 153 125 " clip-rule="nonzero"/></clipPath><clipPath id="1e270b4301"><path d="M 86.621094 61.269531 L 286.207031 37.472656 L 300.0625 153.648438 L 100.472656 177.445312 Z M 86.621094 61.269531 " clip-rule="nonzero"/></clipPath><clipPath id="cae0b31d92"><path d="M 86.621094 61.269531 L 286.207031 37.472656 L 300.0625 153.648438 L 100.472656 177.445312 Z M 86.621094 61.269531 " clip-rule="nonzero"/></clipPath><clipPath id="b635849ded"><path d="M 86.621094 61.269531 L 286.207031 37.472656 L 300.0625 153.648438 L 100.472656 177.445312 Z M 86.621094 61.269531 " clip-rule="nonzero"/></clipPath><clipPath id="5e56a5c8eb"><path d="M 172 123 L 200 123 L 200 149 L 172 149 Z M 172 123 " clip-rule="nonzero"/></clipPath><clipPath id="d802fbdc97"><path d="M 86.621094 61.269531 L 286.207031 37.472656 L 300.0625 153.648438 L 100.472656 177.445312 Z M 86.621094 61.269531 " clip-rule="nonzero"/></clipPath><clipPath id="eb37166041"><path d="M 86.621094 61.269531 L 286.207031 37.472656 L 300.0625 153.648438 L 100.472656 177.445312 Z M 86.621094 61.269531 " clip-rule="nonzero"/></clipPath><clipPath id="f2160118d7"><path d="M 86.621094 61.269531 L 286.207031 37.472656 L 300.0625 153.648438 L 100.472656 177.445312 Z M 86.621094 61.269531 " clip-rule="nonzero"/></clipPath><clipPath id="dede3f62b2"><path d="M 141 58 L 170 58 L 170 84 L 141 84 Z M 141 58 " clip-rule="nonzero"/></clipPath><clipPath id="be21457d88"><path d="M 86.621094 61.269531 L 286.207031 37.472656 L 300.0625 153.648438 L 100.472656 177.445312 Z M 86.621094 61.269531 " clip-rule="nonzero"/></clipPath><clipPath id="b979ba6c79"><path d="M 86.621094 61.269531 L 286.207031 37.472656 L 300.0625 153.648438 L 100.472656 177.445312 Z M 86.621094 61.269531 " clip-rule="nonzero"/></clipPath><clipPath id="38fdf37075"><path d="M 86.621094 61.269531 L 286.207031 37.472656 L 300.0625 153.648438 L 100.472656 177.445312 Z M 86.621094 61.269531 " clip-rule="nonzero"/></clipPath><clipPath id="2cd6ca9933"><path d="M 150 71 L 180 71 L 180 97 L 150 97 Z M 150 71 " clip-rule="nonzero"/></clipPath><clipPath id="3fb2030f4b"><path d="M 86.621094 61.269531 L 286.207031 37.472656 L 300.0625 153.648438 L 100.472656 177.445312 Z M 86.621094 61.269531 " clip-rule="nonzero"/></clipPath><clipPath id="48b9e84733"><path d="M 86.621094 61.269531 L 286.207031 37.472656 L 300.0625 153.648438 L 100.472656 177.445312 Z M 86.621094 61.269531 " clip-rule="nonzero"/></clipPath><clipPath id="0d742c3ab2"><path d="M 86.621094 61.269531 L 286.207031 37.472656 L 300.0625 153.648438 L 100.472656 177.445312 Z M 86.621094 61.269531 " clip-rule="nonzero"/></clipPath><clipPath id="9cbf186311"><path d="M 160 83 L 190 83 L 190 109 L 160 109 Z M 160 83 " clip-rule="nonzero"/></clipPath><clipPath id="43e37dfd40"><path d="M 86.621094 61.269531 L 286.207031 37.472656 L 300.0625 153.648438 L 100.472656 177.445312 Z M 86.621094 61.269531 " clip-rule="nonzero"/></clipPath><clipPath id="b338f7c6c5"><path d="M 86.621094 61.269531 L 286.207031 37.472656 L 300.0625 153.648438 L 100.472656 177.445312 Z M 86.621094 61.269531 " clip-rule="nonzero"/></clipPath><clipPath id="4d655cbd6b"><path d="M 86.621094 61.269531 L 286.207031 37.472656 L 300.0625 153.648438 L 100.472656 177.445312 Z M 86.621094 61.269531 " clip-rule="nonzero"/></clipPath><clipPath id="11e4a4c305"><path d="M 173 92 L 203 92 L 203 119 L 173 119 Z M 173 92 " clip-rule="nonzero"/></clipPath><clipPath id="d295e83d4a"><path d="M 86.621094 61.269531 L 286.207031 37.472656 L 300.0625 153.648438 L 100.472656 177.445312 Z M 86.621094 61.269531 " clip-rule="nonzero"/></clipPath><clipPath id="aaceea2ead"><path d="M 86.621094 61.269531 L 286.207031 37.472656 L 300.0625 153.648438 L 100.472656 177.445312 Z M 86.621094 61.269531 " clip-rule="nonzero"/></clipPath><clipPath id="7c6feeaf52"><path d="M 86.621094 61.269531 L 286.207031 37.472656 L 300.0625 153.648438 L 100.472656 177.445312 Z M 86.621094 61.269531 " clip-rule="nonzero"/></clipPath><clipPath id="f293b441d6"><path d="M 187 99 L 217 99 L 217 125 L 187 125 Z M 187 99 " clip-rule="nonzero"/></clipPath><clipPath id="8da7e2dd91"><path d="M 86.621094 61.269531 L 286.207031 37.472656 L 300.0625 153.648438 L 100.472656 177.445312 Z M 86.621094 61.269531 " clip-rule="nonzero"/></clipPath><clipPath id="3c34becb19"><path d="M 86.621094 61.269531 L 286.207031 37.472656 L 300.0625 153.648438 L 100.472656 177.445312 Z M 86.621094 61.269531 " clip-rule="nonzero"/></clipPath><clipPath id="e22cd4d036"><path d="M 86.621094 61.269531 L 286.207031 37.472656 L 300.0625 153.648438 L 100.472656 177.445312 Z M 86.621094 61.269531 " clip-rule="nonzero"/></clipPath><clipPath id="b928ca9054"><path d="M 203 106 L 232 106 L 232 127 L 203 127 Z M 203 106 " clip-rule="nonzero"/></clipPath><clipPath id="1112dca442"><path d="M 86.621094 61.269531 L 286.207031 37.472656 L 300.0625 153.648438 L 100.472656 177.445312 Z M 86.621094 61.269531 " clip-rule="nonzero"/></clipPath><clipPath id="db81d8997e"><path d="M 86.621094 61.269531 L 286.207031 37.472656 L 300.0625 153.648438 L 100.472656 177.445312 Z M 86.621094 61.269531 " clip-rule="nonzero"/></clipPath><clipPath id="9e7493447e"><path d="M 86.621094 61.269531 L 286.207031 37.472656 L 300.0625 153.648438 L 100.472656 177.445312 Z M 86.621094 61.269531 " clip-rule="nonzero"/></clipPath><clipPath id="266e37020f"><path d="M 218 108 L 247 108 L 247 129 L 218 129 Z M 218 108 " clip-rule="nonzero"/></clipPath><clipPath id="adabbb5c9e"><path d="M 86.621094 61.269531 L 286.207031 37.472656 L 300.0625 153.648438 L 100.472656 177.445312 Z M 86.621094 61.269531 " clip-rule="nonzero"/></clipPath><clipPath id="4856274f05"><path d="M 86.621094 61.269531 L 286.207031 37.472656 L 300.0625 153.648438 L 100.472656 177.445312 Z M 86.621094 61.269531 " clip-rule="nonzero"/></clipPath><clipPath id="9a5454b913"><path d="M 86.621094 61.269531 L 286.207031 37.472656 L 300.0625 153.648438 L 100.472656 177.445312 Z M 86.621094 61.269531 " clip-rule="nonzero"/></clipPath><clipPath id="af340ebc4f"><path d="M 233 110 L 263 110 L 263 130 L 233 130 Z M 233 110 " clip-rule="nonzero"/></clipPath><clipPath id="42e7e8bb0b"><path d="M 86.621094 61.269531 L 286.207031 37.472656 L 300.0625 153.648438 L 100.472656 177.445312 Z M 86.621094 61.269531 " clip-rule="nonzero"/></clipPath><clipPath id="4a8b4c05a5"><path d="M 86.621094 61.269531 L 286.207031 37.472656 L 300.0625 153.648438 L 100.472656 177.445312 Z M 86.621094 61.269531 " clip-rule="nonzero"/></clipPath><clipPath id="54941c5b04"><path d="M 86.621094 61.269531 L 286.207031 37.472656 L 300.0625 153.648438 L 100.472656 177.445312 Z M 86.621094 61.269531 " clip-rule="nonzero"/></clipPath><clipPath id="6a5735563c"><path d="M 258 114 L 289 114 L 289 128 L 258 128 Z M 258 114 " clip-rule="nonzero"/></clipPath><clipPath id="095a07e1bc"><path d="M 86.621094 61.269531 L 286.207031 37.472656 L 300.0625 153.648438 L 100.472656 177.445312 Z M 86.621094 61.269531 " clip-rule="nonzero"/></clipPath><clipPath id="2b3655ac4e"><path d="M 86.621094 61.269531 L 286.207031 37.472656 L 300.0625 153.648438 L 100.472656 177.445312 Z M 86.621094 61.269531 " clip-rule="nonzero"/></clipPath><clipPath id="968b76dae1"><path d="M 86.621094 61.269531 L 286.207031 37.472656 L 300.0625 153.648438 L 100.472656 177.445312 Z M 86.621094 61.269531 " clip-rule="nonzero"/></clipPath><clipPath id="f936ab20cf"><path d="M 251 107 L 296 107 L 296 135 L 251 135 Z M 251 107 " clip-rule="nonzero"/></clipPath><clipPath id="c4a3da32fc"><path d="M 86.621094 61.269531 L 286.207031 37.472656 L 300.0625 153.648438 L 100.472656 177.445312 Z M 86.621094 61.269531 " clip-rule="nonzero"/></clipPath><clipPath id="71dcb573b1"><path d="M 86.621094 61.269531 L 286.207031 37.472656 L 300.0625 153.648438 L 100.472656 177.445312 Z M 86.621094 61.269531 " clip-rule="nonzero"/></clipPath><clipPath id="ca65bc02c9"><path d="M 86.621094 61.269531 L 286.207031 37.472656 L 300.0625 153.648438 L 100.472656 177.445312 Z M 86.621094 61.269531 " clip-rule="nonzero"/></clipPath><clipPath id="bfa256fc75"><path d="M 99 117 L 297 117 L 297 175 L 99 175 Z M 99 117 " clip-rule="nonzero"/></clipPath><clipPath id="494cbee817"><path d="M 86.621094 61.269531 L 286.207031 37.472656 L 300.0625 153.648438 L 100.472656 177.445312 Z M 86.621094 61.269531 " clip-rule="nonzero"/></clipPath><clipPath id="6951d40190"><path d="M 86.621094 61.269531 L 286.207031 37.472656 L 300.0625 153.648438 L 100.472656 177.445312 Z M 86.621094 61.269531 " clip-rule="nonzero"/></clipPath><clipPath id="7376a0af8b"><path d="M 86.621094 61.269531 L 286.207031 37.472656 L 300.0625 153.648438 L 100.472656 177.445312 Z M 86.621094 61.269531 " clip-rule="nonzero"/></clipPath><clipPath id="f8ebbd689b"><path d="M 99 116 L 297 116 L 297 176 L 99 176 Z M 99 116 " clip-rule="nonzero"/></clipPath><clipPath id="2ffc75259e"><path d="M 86.621094 61.269531 L 286.207031 37.472656 L 300.0625 153.648438 L 100.472656 177.445312 Z M 86.621094 61.269531 " clip-rule="nonzero"/></clipPath><clipPath id="cf36dba7e2"><path d="M 86.621094 61.269531 L 286.207031 37.472656 L 300.0625 153.648438 L 100.472656 177.445312 Z M 86.621094 61.269531 " clip-rule="nonzero"/></clipPath><clipPath id="429888df6a"><path d="M 86.621094 61.269531 L 286.207031 37.472656 L 300.0625 153.648438 L 100.472656 177.445312 Z M 86.621094 61.269531 " clip-rule="nonzero"/></clipPath><clipPath id="ad7ccebab1"><path d="M 232 125 L 257 125 L 257 165 L 232 165 Z M 232 125 " clip-rule="nonzero"/></clipPath><clipPath id="1c2c360b42"><path d="M 86.621094 61.269531 L 286.207031 37.472656 L 300.0625 153.648438 L 100.472656 177.445312 Z M 86.621094 61.269531 " clip-rule="nonzero"/></clipPath><clipPath id="1ad8deea85"><path d="M 86.621094 61.269531 L 286.207031 37.472656 L 300.0625 153.648438 L 100.472656 177.445312 Z M 86.621094 61.269531 " clip-rule="nonzero"/></clipPath><clipPath id="6bf58c89bf"><path d="M 86.621094 61.269531 L 286.207031 37.472656 L 300.0625 153.648438 L 100.472656 177.445312 Z M 86.621094 61.269531 " clip-rule="nonzero"/></clipPath><clipPath id="267a44b885"><path d="M 93 149 L 113 149 L 113 178 L 93 178 Z M 93 149 " clip-rule="nonzero"/></clipPath><clipPath id="5abb6ee75a"><path d="M 86.621094 61.269531 L 286.207031 37.472656 L 300.0625 153.648438 L 100.472656 177.445312 Z M 86.621094 61.269531 " clip-rule="nonzero"/></clipPath><clipPath id="6de6ab3e13"><path d="M 86.621094 61.269531 L 286.207031 37.472656 L 300.0625 153.648438 L 100.472656 177.445312 Z M 86.621094 61.269531 " clip-rule="nonzero"/></clipPath><clipPath id="816b491851"><path d="M 86.621094 61.269531 L 286.207031 37.472656 L 300.0625 153.648438 L 100.472656 177.445312 Z M 86.621094 61.269531 " clip-rule="nonzero"/></clipPath><clipPath id="e4c0598ab5"><path d="M 93 136 L 257 136 L 257 178 L 93 178 Z M 93 136 " clip-rule="nonzero"/></clipPath><clipPath id="c59aad0365"><path d="M 86.621094 61.269531 L 286.207031 37.472656 L 300.0625 153.648438 L 100.472656 177.445312 Z M 86.621094 61.269531 " clip-rule="nonzero"/></clipPath><clipPath id="110f23378c"><path d="M 86.621094 61.269531 L 286.207031 37.472656 L 300.0625 153.648438 L 100.472656 177.445312 Z M 86.621094 61.269531 " clip-rule="nonzero"/></clipPath><clipPath id="e3d1f8952d"><path d="M 86.621094 61.269531 L 286.207031 37.472656 L 300.0625 153.648438 L 100.472656 177.445312 Z M 86.621094 61.269531 " clip-rule="nonzero"/></clipPath><clipPath id="4f642d797f"><path d="M 134 56 L 274 56 L 274 133 L 134 133 Z M 134 56 " clip-rule="nonzero"/></clipPath><clipPath id="e17eb8a87e"><path d="M 86.621094 61.269531 L 286.207031 37.472656 L 300.0625 153.648438 L 100.472656 177.445312 Z M 86.621094 61.269531 " clip-rule="nonzero"/></clipPath><clipPath id="38e42f8fe0"><path d="M 86.621094 61.269531 L 286.207031 37.472656 L 300.0625 153.648438 L 100.472656 177.445312 Z M 86.621094 61.269531 " clip-rule="nonzero"/></clipPath><clipPath id="3127e028af"><path d="M 86.621094 61.269531 L 286.207031 37.472656 L 300.0625 153.648438 L 100.472656 177.445312 Z M 86.621094 61.269531 " clip-rule="nonzero"/></clipPath><clipPath id="ec6e76a8d5"><path d="M 154 63 L 166 63 L 166 72 L 154 72 Z M 154 63 " clip-rule="nonzero"/></clipPath><clipPath id="235a12debc"><path d="M 86.621094 61.269531 L 286.207031 37.472656 L 300.0625 153.648438 L 100.472656 177.445312 Z M 86.621094 61.269531 " clip-rule="nonzero"/></clipPath><clipPath id="30386671c3"><path d="M 86.621094 61.269531 L 286.207031 37.472656 L 300.0625 153.648438 L 100.472656 177.445312 Z M 86.621094 61.269531 " clip-rule="nonzero"/></clipPath><clipPath id="65e4dd29cc"><path d="M 86.621094 61.269531 L 286.207031 37.472656 L 300.0625 153.648438 L 100.472656 177.445312 Z M 86.621094 61.269531 " clip-rule="nonzero"/></clipPath><clipPath id="1ab81c7801"><path d="M 154 63 L 166 63 L 166 73 L 154 73 Z M 154 63 " clip-rule="nonzero"/></clipPath><clipPath id="b14c229d1b"><path d="M 86.621094 61.269531 L 286.207031 37.472656 L 300.0625 153.648438 L 100.472656 177.445312 Z M 86.621094 61.269531 " clip-rule="nonzero"/></clipPath><clipPath id="9909314d40"><path d="M 86.621094 61.269531 L 286.207031 37.472656 L 300.0625 153.648438 L 100.472656 177.445312 Z M 86.621094 61.269531 " clip-rule="nonzero"/></clipPath><clipPath id="a8f75ccba6"><path d="M 86.621094 61.269531 L 286.207031 37.472656 L 300.0625 153.648438 L 100.472656 177.445312 Z M 86.621094 61.269531 " clip-rule="nonzero"/></clipPath><clipPath id="c9121a6044"><path d="M 164 77 L 176 77 L 176 85 L 164 85 Z M 164 77 " clip-rule="nonzero"/></clipPath><clipPath id="ab161e7399"><path d="M 86.621094 61.269531 L 286.207031 37.472656 L 300.0625 153.648438 L 100.472656 177.445312 Z M 86.621094 61.269531 " clip-rule="nonzero"/></clipPath><clipPath id="b9fbda9a6f"><path d="M 86.621094 61.269531 L 286.207031 37.472656 L 300.0625 153.648438 L 100.472656 177.445312 Z M 86.621094 61.269531 " clip-rule="nonzero"/></clipPath><clipPath id="3eaa01d5fd"><path d="M 86.621094 61.269531 L 286.207031 37.472656 L 300.0625 153.648438 L 100.472656 177.445312 Z M 86.621094 61.269531 " clip-rule="nonzero"/></clipPath><clipPath id="2a5b125081"><path d="M 163 76 L 176 76 L 176 86 L 163 86 Z M 163 76 " clip-rule="nonzero"/></clipPath><clipPath id="3e3d8e72ec"><path d="M 86.621094 61.269531 L 286.207031 37.472656 L 300.0625 153.648438 L 100.472656 177.445312 Z M 86.621094 61.269531 " clip-rule="nonzero"/></clipPath><clipPath id="11b4b3332c"><path d="M 86.621094 61.269531 L 286.207031 37.472656 L 300.0625 153.648438 L 100.472656 177.445312 Z M 86.621094 61.269531 " clip-rule="nonzero"/></clipPath><clipPath id="034ce5b7f2"><path d="M 86.621094 61.269531 L 286.207031 37.472656 L 300.0625 153.648438 L 100.472656 177.445312 Z M 86.621094 61.269531 " clip-rule="nonzero"/></clipPath><clipPath id="8ee421c278"><path d="M 174 86 L 185 86 L 185 97 L 174 97 Z M 174 86 " clip-rule="nonzero"/></clipPath><clipPath id="4e1db71003"><path d="M 86.621094 61.269531 L 286.207031 37.472656 L 300.0625 153.648438 L 100.472656 177.445312 Z M 86.621094 61.269531 " clip-rule="nonzero"/></clipPath><clipPath id="3de9167b10"><path d="M 86.621094 61.269531 L 286.207031 37.472656 L 300.0625 153.648438 L 100.472656 177.445312 Z M 86.621094 61.269531 " clip-rule="nonzero"/></clipPath><clipPath id="38dfa35bcd"><path d="M 86.621094 61.269531 L 286.207031 37.472656 L 300.0625 153.648438 L 100.472656 177.445312 Z M 86.621094 61.269531 " clip-rule="nonzero"/></clipPath><clipPath id="9dc0e9e57c"><path d="M 174 85 L 186 85 L 186 98 L 174 98 Z M 174 85 " clip-rule="nonzero"/></clipPath><clipPath id="460c538265"><path d="M 86.621094 61.269531 L 286.207031 37.472656 L 300.0625 153.648438 L 100.472656 177.445312 Z M 86.621094 61.269531 " clip-rule="nonzero"/></clipPath><clipPath id="ecc52b74db"><path d="M 86.621094 61.269531 L 286.207031 37.472656 L 300.0625 153.648438 L 100.472656 177.445312 Z M 86.621094 61.269531 " clip-rule="nonzero"/></clipPath><clipPath id="88927b9b09"><path d="M 86.621094 61.269531 L 286.207031 37.472656 L 300.0625 153.648438 L 100.472656 177.445312 Z M 86.621094 61.269531 " clip-rule="nonzero"/></clipPath><clipPath id="c9056552d1"><path d="M 187 97 L 197 97 L 197 107 L 187 107 Z M 187 97 " clip-rule="nonzero"/></clipPath><clipPath id="b7f75872fd"><path d="M 86.621094 61.269531 L 286.207031 37.472656 L 300.0625 153.648438 L 100.472656 177.445312 Z M 86.621094 61.269531 " clip-rule="nonzero"/></clipPath><clipPath id="0d96ab1bf7"><path d="M 86.621094 61.269531 L 286.207031 37.472656 L 300.0625 153.648438 L 100.472656 177.445312 Z M 86.621094 61.269531 " clip-rule="nonzero"/></clipPath><clipPath id="228ba41978"><path d="M 86.621094 61.269531 L 286.207031 37.472656 L 300.0625 153.648438 L 100.472656 177.445312 Z M 86.621094 61.269531 " clip-rule="nonzero"/></clipPath><clipPath id="7f3f8470b3"><path d="M 186 96 L 197 96 L 197 108 L 186 108 Z M 186 96 " clip-rule="nonzero"/></clipPath><clipPath id="84813b64dd"><path d="M 86.621094 61.269531 L 286.207031 37.472656 L 300.0625 153.648438 L 100.472656 177.445312 Z M 86.621094 61.269531 " clip-rule="nonzero"/></clipPath><clipPath id="a0c68d4088"><path d="M 86.621094 61.269531 L 286.207031 37.472656 L 300.0625 153.648438 L 100.472656 177.445312 Z M 86.621094 61.269531 " clip-rule="nonzero"/></clipPath><clipPath id="d6f6eb6570"><path d="M 86.621094 61.269531 L 286.207031 37.472656 L 300.0625 153.648438 L 100.472656 177.445312 Z M 86.621094 61.269531 " clip-rule="nonzero"/></clipPath><clipPath id="0a19b1d374"><path d="M 200 103 L 207 103 L 207 113 L 200 113 Z M 200 103 " clip-rule="nonzero"/></clipPath><clipPath id="1d0ddfde49"><path d="M 86.621094 61.269531 L 286.207031 37.472656 L 300.0625 153.648438 L 100.472656 177.445312 Z M 86.621094 61.269531 " clip-rule="nonzero"/></clipPath><clipPath id="f816732ba8"><path d="M 86.621094 61.269531 L 286.207031 37.472656 L 300.0625 153.648438 L 100.472656 177.445312 Z M 86.621094 61.269531 " clip-rule="nonzero"/></clipPath><clipPath id="0f8553bcd9"><path d="M 86.621094 61.269531 L 286.207031 37.472656 L 300.0625 153.648438 L 100.472656 177.445312 Z M 86.621094 61.269531 " clip-rule="nonzero"/></clipPath><clipPath id="be952f8341"><path d="M 200 103 L 208 103 L 208 114 L 200 114 Z M 200 103 " clip-rule="nonzero"/></clipPath><clipPath id="4d263023dc"><path d="M 86.621094 61.269531 L 286.207031 37.472656 L 300.0625 153.648438 L 100.472656 177.445312 Z M 86.621094 61.269531 " clip-rule="nonzero"/></clipPath><clipPath id="77bdfac274"><path d="M 86.621094 61.269531 L 286.207031 37.472656 L 300.0625 153.648438 L 100.472656 177.445312 Z M 86.621094 61.269531 " clip-rule="nonzero"/></clipPath><clipPath id="4dc97bb69d"><path d="M 86.621094 61.269531 L 286.207031 37.472656 L 300.0625 153.648438 L 100.472656 177.445312 Z M 86.621094 61.269531 " clip-rule="nonzero"/></clipPath><clipPath id="0d0b304515"><path d="M 214 106 L 220 106 L 220 117 L 214 117 Z M 214 106 " clip-rule="nonzero"/></clipPath><clipPath id="96a2d501e6"><path d="M 86.621094 61.269531 L 286.207031 37.472656 L 300.0625 153.648438 L 100.472656 177.445312 Z M 86.621094 61.269531 " clip-rule="nonzero"/></clipPath><clipPath id="36f0754971"><path d="M 86.621094 61.269531 L 286.207031 37.472656 L 300.0625 153.648438 L 100.472656 177.445312 Z M 86.621094 61.269531 " clip-rule="nonzero"/></clipPath><clipPath id="a0d2bf4074"><path d="M 86.621094 61.269531 L 286.207031 37.472656 L 300.0625 153.648438 L 100.472656 177.445312 Z M 86.621094 61.269531 " clip-rule="nonzero"/></clipPath><clipPath id="88722d6433"><path d="M 213 106 L 220 106 L 220 117 L 213 117 Z M 213 106 " clip-rule="nonzero"/></clipPath><clipPath id="deae2a27bb"><path d="M 86.621094 61.269531 L 286.207031 37.472656 L 300.0625 153.648438 L 100.472656 177.445312 Z M 86.621094 61.269531 " clip-rule="nonzero"/></clipPath><clipPath id="47640633b6"><path d="M 86.621094 61.269531 L 286.207031 37.472656 L 300.0625 153.648438 L 100.472656 177.445312 Z M 86.621094 61.269531 " clip-rule="nonzero"/></clipPath><clipPath id="faa77f431d"><path d="M 86.621094 61.269531 L 286.207031 37.472656 L 300.0625 153.648438 L 100.472656 177.445312 Z M 86.621094 61.269531 " clip-rule="nonzero"/></clipPath><clipPath id="59a1204654"><path d="M 228 111 L 235 111 L 235 119 L 228 119 Z M 228 111 " clip-rule="nonzero"/></clipPath><clipPath id="53599dc411"><path d="M 86.621094 61.269531 L 286.207031 37.472656 L 300.0625 153.648438 L 100.472656 177.445312 Z M 86.621094 61.269531 " clip-rule="nonzero"/></clipPath><clipPath id="2cc8eb91c1"><path d="M 86.621094 61.269531 L 286.207031 37.472656 L 300.0625 153.648438 L 100.472656 177.445312 Z M 86.621094 61.269531 " clip-rule="nonzero"/></clipPath><clipPath id="9fe7fcd5fd"><path d="M 86.621094 61.269531 L 286.207031 37.472656 L 300.0625 153.648438 L 100.472656 177.445312 Z M 86.621094 61.269531 " clip-rule="nonzero"/></clipPath><clipPath id="7f9c452d19"><path d="M 228 110 L 235 110 L 235 120 L 228 120 Z M 228 110 " clip-rule="nonzero"/></clipPath><clipPath id="a8c268b693"><path d="M 86.621094 61.269531 L 286.207031 37.472656 L 300.0625 153.648438 L 100.472656 177.445312 Z M 86.621094 61.269531 " clip-rule="nonzero"/></clipPath><clipPath id="07a28dc0ab"><path d="M 86.621094 61.269531 L 286.207031 37.472656 L 300.0625 153.648438 L 100.472656 177.445312 Z M 86.621094 61.269531 " clip-rule="nonzero"/></clipPath><clipPath id="194da05280"><path d="M 86.621094 61.269531 L 286.207031 37.472656 L 300.0625 153.648438 L 100.472656 177.445312 Z M 86.621094 61.269531 " clip-rule="nonzero"/></clipPath><clipPath id="2e578f2a2d"><path d="M 243 114 L 250 114 L 250 121 L 243 121 Z M 243 114 " clip-rule="nonzero"/></clipPath><clipPath id="76944a2af5"><path d="M 86.621094 61.269531 L 286.207031 37.472656 L 300.0625 153.648438 L 100.472656 177.445312 Z M 86.621094 61.269531 " clip-rule="nonzero"/></clipPath><clipPath id="da5bda72d8"><path d="M 86.621094 61.269531 L 286.207031 37.472656 L 300.0625 153.648438 L 100.472656 177.445312 Z M 86.621094 61.269531 " clip-rule="nonzero"/></clipPath><clipPath id="7bc4d7c003"><path d="M 86.621094 61.269531 L 286.207031 37.472656 L 300.0625 153.648438 L 100.472656 177.445312 Z M 86.621094 61.269531 " clip-rule="nonzero"/></clipPath><clipPath id="732a4e57b9"><path d="M 243 113 L 251 113 L 251 121 L 243 121 Z M 243 113 " clip-rule="nonzero"/></clipPath><clipPath id="d3d4b37d00"><path d="M 86.621094 61.269531 L 286.207031 37.472656 L 300.0625 153.648438 L 100.472656 177.445312 Z M 86.621094 61.269531 " clip-rule="nonzero"/></clipPath><clipPath id="810e53c47e"><path d="M 86.621094 61.269531 L 286.207031 37.472656 L 300.0625 153.648438 L 100.472656 177.445312 Z M 86.621094 61.269531 " clip-rule="nonzero"/></clipPath><clipPath id="fd013e52e4"><path d="M 86.621094 61.269531 L 286.207031 37.472656 L 300.0625 153.648438 L 100.472656 177.445312 Z M 86.621094 61.269531 " clip-rule="nonzero"/></clipPath></defs><g clip-path="url(#6d0ac70610)"><g clip-path="url(#c607aaf6cd)"><g clip-path="url(#b0d9c68ecf)"><g clip-path="url(#5174ae1b65)"><path fill="#000000" d="M 138.328125 65.460938 C 137.914062 63.046875 137.515625 62.136719 138.09375 60.410156 C 139.109375 57.398438 141.832031 54.820312 143.121094 54.890625 C 145.152344 55 145.136719 56.316406 146.886719 57.773438 C 148.640625 59.230469 151.625 62.910156 151.625 62.910156 Z M 138.328125 65.460938 " fill-opacity="1" fill-rule="nonzero"/></g></g></g></g><g clip-path="url(#95643e326d)"><g clip-path="url(#7f5719dc52)"><g clip-path="url(#73f1e94344)"><g clip-path="url(#88c8c8fd62)"><path stroke-linecap="butt" transform="matrix(0.242261, -0.028885, 0.0288641, 0.242086, 77.177205, 8.156799)" fill="none" stroke-linejoin="miter" d="M 221.071649 263.087353 C 220.557894 253.054137 219.377949 249.15371 222.568697 242.402403 C 228.163665 230.629285 240.495698 221.451086 245.707951 222.363441 C 253.921888 223.795305 253.219499 229.149259 259.634811 235.933364 C 266.066021 242.719366 276.426571 259.155468 276.426571 259.155468 Z M 221.071649 263.087353 " stroke="#000000" stroke-width="1" stroke-opacity="1" stroke-miterlimit="4"/></g></g></g></g><g clip-path="url(#a7d3514f44)"><g clip-path="url(#c4b293887d)"><g clip-path="url(#3e6421717e)"><g clip-path="url(#7710308f24)"><path fill="#000000" d="M 98.058594 65.523438 C 98.058594 65.523438 101.78125 83.496094 101.183594 107.945312 C 100.632812 130.585938 98.855469 129.617188 99.242188 137.289062 C 99.628906 144.957031 102.152344 157.285156 102.152344 157.285156 C 102.152344 157.285156 180.230469 149.730469 201.542969 145.960938 C 222.855469 142.191406 273.371094 127.226562 273.371094 127.226562 C 273.371094 127.226562 272.242188 120.695312 264.714844 117.910156 C 257.1875 115.125 243.199219 115.5625 234.714844 113.59375 C 226.230469 111.625 201.128906 108.65625 186.582031 94.078125 C 172.03125 79.503906 158.472656 61.9375 152.691406 60.0625 C 147.707031 61.351562 137.109375 63.324219 123.570312 64.585938 C 110.03125 65.851562 98.058594 65.523438 98.058594 65.523438 Z M 98.058594 65.523438 " fill-opacity="1" fill-rule="nonzero"/></g></g></g></g><g clip-path="url(#961d30a4d3)"><g clip-path="url(#807c9dd60c)"><g clip-path="url(#c1ad14a5a7)"><g clip-path="url(#b245a09e46)"><path stroke-linecap="butt" transform="matrix(0.242261, -0.028885, 0.0288641, 0.242086, 77.177205, 8.156799)" fill="none" stroke-linejoin="miter" d="M 57.147804 243.786622 C 57.147804 243.786622 63.57731 318.794532 49.280711 418.082602 C 36.052524 510.027281 29.288983 505.2186 27.140052 536.652884 C 24.993018 568.071258 29.280864 619.507418 29.280864 619.507418 C 29.280864 619.507418 350.718069 626.653733 439.287302 621.650514 C 527.856534 616.647295 740.712585 580.22844 740.712585 580.22844 C 740.712585 580.22844 739.287378 553.079351 710.003259 538.08044 C 680.71914 523.08153 623.575742 518.070558 590.000421 505.932014 C 556.4251 493.79347 455.704518 469.512591 403.57415 403.07379 C 351.425989 336.649002 304.76793 258.519263 282.148601 248.075214 C 261.237097 250.904926 217.148302 253.792955 161.433227 252.357058 C 105.716256 250.937071 57.147804 243.786622 57.147804 243.786622 Z M 57.147804 243.786622 " stroke="#000000" stroke-width="1" stroke-opacity="1" stroke-miterlimit="4"/></g></g></g></g><g clip-path="url(#3e17261ebe)"><g clip-path="url(#4e11f2d08a)"><g clip-path="url(#b226acbd16)"><g clip-path="url(#65a7189d50)"><path fill="#ffffff" d="M 147.28125 100.078125 C 148.4375 109.773438 141.242188 118.601562 131.207031 119.796875 C 121.171875 120.992188 112.097656 114.105469 110.941406 104.414062 C 109.789062 94.71875 116.984375 85.890625 127.019531 84.695312 C 137.054688 83.5 146.125 90.386719 147.28125 100.078125 Z M 147.28125 100.078125 " fill-opacity="1" fill-rule="nonzero"/></g></g></g></g><g clip-path="url(#4b71ee6919)"><g clip-path="url(#bb93dc4c16)"><g clip-path="url(#48eca11d9d)"><g clip-path="url(#488c011521)"><path stroke-linecap="butt" transform="matrix(0.242261, -0.028885, 0.0288641, 0.242086, 78.236147, 8.205846)" fill="none" stroke-linejoin="miter" d="M 236.425809 407.712115 C 236.426914 447.761273 202.858691 480.222894 161.436436 480.218065 C 120.014181 480.213236 86.424732 447.758049 86.421731 407.724801 C 86.436524 367.67754 120.004747 335.215919 161.427002 335.220748 C 202.849258 335.225577 236.422808 367.678867 236.425809 407.712115 Z M 236.425809 407.712115 " stroke="#d8d8d8" stroke-width="1" stroke-opacity="1" stroke-miterlimit="4"/></g></g></g></g><g clip-path="url(#fcfe2a67c4)"><g clip-path="url(#1e270b4301)"><g clip-path="url(#cae0b31d92)"><g clip-path="url(#b635849ded)"><path stroke-linecap="butt" transform="matrix(0.037519, -0.00447342, 0.00434, 0.0364001, 158.59268, 124.577087)" fill="none" stroke-linejoin="miter" d="M 236.474513 407.695299 C 236.425954 447.717585 202.893079 480.190728 161.449093 480.248521 C 120.017347 480.200505 86.395629 447.737545 86.444188 407.715259 C 86.390092 367.680357 120.025621 335.21983 161.457368 335.267847 C 202.901354 335.210053 236.420417 367.660397 236.474513 407.695299 Z M 236.474513 407.695299 " stroke="#ffffff" stroke-width="48.764999" stroke-opacity="1" stroke-miterlimit="4"/></g></g></g></g><g clip-path="url(#5e56a5c8eb)"><g clip-path="url(#d802fbdc97)"><g clip-path="url(#eb37166041)"><g clip-path="url(#f2160118d7)"><path stroke-linecap="butt" transform="matrix(0.037519, -0.00447342, 0.00434, 0.0364001, 178.319026, 121.928034)" fill="none" stroke-linejoin="miter" d="M 236.478298 407.712663 C 236.429739 447.73495 202.896865 480.208092 161.452879 480.265886 C 120.021132 480.217869 86.399415 447.754909 86.447973 407.732623 C 86.393878 367.697721 120.029407 335.237195 161.473393 335.179401 C 202.802485 335.214801 236.424203 367.677761 236.478298 407.712663 Z M 236.478298 407.712663 " stroke="#ffffff" stroke-width="48.764999" stroke-opacity="1" stroke-miterlimit="4"/></g></g></g></g><g clip-path="url(#dede3f62b2)"><g clip-path="url(#be21457d88)"><g clip-path="url(#b979ba6c79)"><g clip-path="url(#38fdf37075)"><path stroke-linecap="butt" transform="matrix(0.0388417, 0.0173976, -0.0131052, 0.0319687, 154.630542, 55.015218)" fill="none" stroke-linejoin="miter" d="M 236.400056 407.77563 C 236.404282 447.729436 202.804255 480.188881 161.388828 480.244554 C 120.058369 480.253987 86.450947 447.712416 86.44672 407.75861 C 86.407663 367.70157 120.00769 335.242125 161.423117 335.186453 C 202.873375 335.234014 236.445965 367.672351 236.400056 407.77563 Z M 236.400056 407.77563 " stroke="#ffffff" stroke-width="48.766998" stroke-opacity="1" stroke-miterlimit="4"/></g></g></g></g><g clip-path="url(#2cd6ca9933)"><g clip-path="url(#3fb2030f4b)"><g clip-path="url(#48b9e84733)"><g clip-path="url(#0d742c3ab2)"><path stroke-linecap="butt" transform="matrix(0.0388417, 0.0173976, -0.0131052, 0.0319687, 164.097006, 68.178687)" fill="none" stroke-linejoin="miter" d="M 236.455088 407.764255 C 236.459314 447.71806 202.859287 480.177505 161.44386 480.233178 C 119.993602 480.185617 86.421012 447.74728 86.381954 407.69024 C 86.462695 367.690195 120.062722 335.23075 161.393182 335.221317 C 202.84344 335.268878 236.41603 367.707215 236.455088 407.764255 Z M 236.455088 407.764255 " stroke="#ffffff" stroke-width="48.766998" stroke-opacity="1" stroke-miterlimit="4"/></g></g></g></g><g clip-path="url(#9cbf186311)"><g clip-path="url(#43e37dfd40)"><g clip-path="url(#b338f7c6c5)"><g clip-path="url(#4d655cbd6b)"><path stroke-linecap="butt" transform="matrix(0.0388417, 0.0173976, -0.0131052, 0.0319687, 174.273919, 79.94388)" fill="none" stroke-linejoin="miter" d="M 236.399477 407.685847 C 236.438534 447.742888 202.838507 480.202332 161.423081 480.258005 C 119.972823 480.210444 86.400232 447.772107 86.446142 407.668827 C 86.441915 367.715022 120.041942 335.255577 161.457369 335.199904 C 202.907627 335.247466 236.480218 367.685802 236.399477 407.685847 Z M 236.399477 407.685847 " stroke="#ffffff" stroke-width="48.766998" stroke-opacity="1" stroke-miterlimit="4"/></g></g></g></g><g clip-path="url(#11e4a4c305)"><g clip-path="url(#d295e83d4a)"><g clip-path="url(#aaceea2ead)"><g clip-path="url(#7c6feeaf52)"><path stroke-linecap="butt" transform="matrix(0.0387782, 0.018019, -0.0129429, 0.0327939, 186.990021, 89.47156)" fill="none" stroke-linejoin="miter" d="M 236.455195 407.676345 C 236.422019 447.717207 202.847321 480.220775 161.445273 480.218639 C 120.043225 480.216504 86.426677 447.706288 86.459853 407.665425 C 86.407907 367.671334 120.016201 335.268422 161.418249 335.270558 C 202.820296 335.272693 236.40325 367.682254 236.455195 407.676345 Z M 236.455195 407.676345 " stroke="#ffffff" stroke-width="48.766998" stroke-opacity="1" stroke-miterlimit="4"/></g></g></g></g><g clip-path="url(#f293b441d6)"><g clip-path="url(#8da7e2dd91)"><g clip-path="url(#3c34becb19)"><g clip-path="url(#e22cd4d036)"><path stroke-linecap="butt" transform="matrix(0.0413216, 0.0110153, -0.0070489, 0.0345416, 198.36465, 96.424006)" fill="none" stroke-linejoin="miter" d="M 236.469478 407.754851 C 236.401413 447.809848 202.886466 480.210741 161.386995 480.213586 C 119.977179 480.18784 86.468313 447.787144 86.446722 407.760737 C 86.425131 367.734331 120.011438 335.197593 161.421254 335.22334 C 202.831069 335.249086 236.447887 367.728445 236.469478 407.754851 Z M 236.469478 407.754851 " stroke="#ffffff" stroke-width="48.766998" stroke-opacity="1" stroke-miterlimit="4"/></g></g></g></g><g clip-path="url(#b928ca9054)"><g clip-path="url(#1112dca442)"><g clip-path="url(#db81d8997e)"><g clip-path="url(#9e7493447e)"><path stroke-linecap="butt" transform="matrix(0.0400618, 0.00817744, -0.0075372, 0.0282824, 213.919706, 103.467284)" fill="none" stroke-linejoin="miter" d="M 236.484217 407.762114 C 236.393406 447.703931 202.822376 480.199675 161.376393 480.167085 C 120.047529 480.238748 86.42835 447.695717 86.426686 407.780637 C 86.400378 367.734567 119.971408 335.238823 161.417391 335.271413 C 202.83873 335.173013 236.457909 367.716043 236.484217 407.762114 Z M 236.484217 407.762114 " stroke="#ffffff" stroke-width="48.766998" stroke-opacity="1" stroke-miterlimit="4"/></g></g></g></g><g clip-path="url(#266e37020f)"><g clip-path="url(#adabbb5c9e)"><g clip-path="url(#4856274f05)"><g clip-path="url(#9a5454b913)"><path stroke-linecap="butt" transform="matrix(0.0400618, 0.00817744, -0.0075372, 0.0282824, 228.915193, 105.590619)" fill="none" stroke-linejoin="miter" d="M 236.391966 407.709539 C 236.418274 447.75561 202.847244 480.251354 161.40126 480.218763 C 119.955277 480.186173 86.453218 447.747395 86.42691 407.701325 C 86.400601 367.655254 119.996276 335.290501 161.417615 335.192101 C 202.863598 335.224691 236.458132 367.636731 236.391966 407.709539 Z M 236.391966 407.709539 " stroke="#ffffff" stroke-width="48.766998" stroke-opacity="1" stroke-miterlimit="4"/></g></g></g></g><g clip-path="url(#af340ebc4f)"><g clip-path="url(#42e7e8bb0b)"><g clip-path="url(#4a8b4c05a5)"><g clip-path="url(#54941c5b04)"><path stroke-linecap="butt" transform="matrix(0.0408136, 0.00057221, -0.00281246, 0.0266117, 242.280913, 109.005785)" fill="none" stroke-linejoin="miter" d="M 236.466566 407.756635 C 236.452421 447.829785 202.891604 480.257404 161.450051 480.267767 C 120.008498 480.27813 86.475132 447.825313 86.393708 407.754218 C 86.407853 367.681068 119.96867 335.253448 161.410223 335.243086 C 202.851776 335.232723 236.385142 367.68554 236.466566 407.756635 Z M 236.466566 407.756635 " stroke="#ffffff" stroke-width="48.766998" stroke-opacity="1" stroke-miterlimit="4"/></g></g></g></g><g clip-path="url(#6a5735563c)"><g clip-path="url(#095a07e1bc)"><g clip-path="url(#2b3655ac4e)"><g clip-path="url(#968b76dae1)"><path fill="#ffffff" d="M 288.609375 119.492188 C 286.703125 116.734375 284.265625 114.671875 281.132812 114.285156 C 274.644531 113.488281 262.644531 116.007812 258.976562 116.882812 C 255.308594 117.761719 267.839844 125.34375 272.691406 127.394531 C 275.710938 125.707031 286.957031 122.324219 288.609375 119.488281 Z M 288.609375 119.492188 " fill-opacity="1" fill-rule="nonzero"/></g></g></g></g><g clip-path="url(#f936ab20cf)"><g clip-path="url(#c4a3da32fc)"><g clip-path="url(#71dcb573b1)"><g clip-path="url(#ca65bc02c9)"><path stroke-linecap="butt" transform="matrix(0.242261, -0.028885, 0.0288641, 0.242086, 77.177205, 8.156799)" fill="none" stroke-linejoin="miter" d="M 806.484245 556.127258 C 800.064224 543.969374 791.144655 534.385421 778.582037 531.289044 C 752.561982 524.892708 702.500394 529.327092 687.147477 531.109644 C 671.792664 532.908106 719.114525 569.873974 737.864807 580.58249 C 750.972912 575.17585 798.385081 566.859336 806.48614 556.111348 Z M 806.484245 556.127258 " stroke="#000000" stroke-width="5" stroke-opacity="1" stroke-miterlimit="4"/></g></g></g></g><g clip-path="url(#bfa256fc75)"><g clip-path="url(#494cbee817)"><g clip-path="url(#6951d40190)"><g clip-path="url(#7376a0af8b)"><path fill="#ffffff" d="M 99.679688 153.4375 C 99.679688 153.4375 148.691406 149.570312 183.300781 144.949219 C 217.609375 140.367188 271.207031 128.339844 288.535156 117.523438 C 289.296875 119.113281 291.480469 120.441406 292.40625 122.28125 C 293.5 124.457031 296.902344 133.324219 295.929688 136.949219 C 294.957031 140.570312 272.96875 148.867188 255.992188 153.695312 C 239.019531 158.527344 215.8125 161.3125 197.46875 163.5 C 179.128906 165.6875 139.585938 172.585938 124.300781 173.914062 C 108.984375 175.246094 104.242188 174.511719 101.003906 172.484375 C 100.03125 168.253906 99.679688 153.4375 99.679688 153.4375 Z M 99.679688 153.4375 " fill-opacity="1" fill-rule="nonzero"/></g></g></g></g><g clip-path="url(#f8ebbd689b)"><g clip-path="url(#2ffc75259e)"><g clip-path="url(#cf36dba7e2)"><g clip-path="url(#429888df6a)"><path stroke-linecap="butt" transform="matrix(0.242261, -0.028885, 0.0288641, 0.242086, 77.177205, 8.156799)" fill="none" stroke-linejoin="round" d="M 21.084474 602.635698 C 21.084474 602.635698 222.434524 610.685756 365.534118 608.671335 C 507.390603 606.669948 731.364808 583.711791 807.137534 548.072769 C 809.466178 554.917882 817.708732 561.387527 820.583782 569.330525 C 823.979434 578.723318 833.523802 616.490363 827.806113 630.782156 C 822.09032 645.05804 728.573784 668.17234 657.137752 679.59264 C 585.715722 691.030746 489.913587 691.104738 414.194605 691.106216 C 338.491521 691.109592 174.207526 700.003517 111.353775 697.990163 C 48.370945 695.977543 29.427012 690.683682 17.231273 680.854049 C 15.325517 663.151601 21.084474 602.635698 21.084474 602.635698 Z M 21.084474 602.635698 " stroke="#000000" stroke-width="5" stroke-opacity="1" stroke-miterlimit="4"/></g></g></g></g><g clip-path="url(#ad7ccebab1)"><g clip-path="url(#1c2c360b42)"><g clip-path="url(#1ad8deea85)"><g clip-path="url(#6bf58c89bf)"><path stroke-linecap="butt" transform="matrix(0.242261, -0.028885, 0.0288641, 0.242086, 77.177205, 8.156799)" fill="none" stroke-linejoin="miter" d="M 605.713257 590.583415 C 613.205791 620.941351 621.775972 662.012945 623.923441 684.859278 " stroke="#000000" stroke-width="6" stroke-opacity="1" stroke-miterlimit="4"/></g></g></g></g><g clip-path="url(#267a44b885)"><g clip-path="url(#5abb6ee75a)"><g clip-path="url(#6de6ab3e13)"><g clip-path="url(#816b491851)"><path stroke-linecap="butt" transform="matrix(0.242261, -0.028885, 0.0288641, 0.242086, 77.177205, 8.156799)" fill="none" stroke-linejoin="miter" d="M 20.717046 614.516205 L 35.351492 617.00459 L 34.639327 689.15954 " stroke="#000000" stroke-width="5" stroke-opacity="1" stroke-miterlimit="4"/></g></g></g></g><g clip-path="url(#e4c0598ab5)"><g clip-path="url(#c59aad0365)"><g clip-path="url(#110f23378c)"><g clip-path="url(#e3d1f8952d)"><path stroke-linecap="butt" transform="matrix(0.242261, -0.028885, 0.0288641, 0.242086, 77.177205, 8.156799)" fill="none" stroke-linejoin="miter" d="M 34.64183 660.583358 C 34.64183 660.583358 51.018342 666.990832 77.273015 667.493328 C 103.543586 667.99772 235.372588 664.493304 275.765992 664.472188 C 311.629476 664.443057 440.409468 662.57568 488.90919 660.423714 C 541.429359 658.089889 619.209528 649.31444 619.209528 649.31444 " stroke="#000000" stroke-width="8" stroke-opacity="1" stroke-miterlimit="4"/></g></g></g></g><g clip-path="url(#4f642d797f)"><g clip-path="url(#e17eb8a87e)"><g clip-path="url(#38e42f8fe0)"><g clip-path="url(#3127e028af)"><path stroke-linecap="round" transform="matrix(0.242261, -0.028885, 0.0288641, 0.242086, 77.177205, 8.156799)" fill="none" stroke-linejoin="miter" d="M 234.355306 256.071944 C 269.990782 313.442877 277.691888 364.786088 328.740144 422.172684 C 379.790296 479.54337 421.190298 514.786105 491.49335 532.904335 C 561.8123 551.024463 714.921829 570.148232 714.921829 570.148232 " stroke="#ffffff" stroke-width="4.874" stroke-opacity="1" stroke-miterlimit="4"/></g></g></g></g><g clip-path="url(#ec6e76a8d5)"><g clip-path="url(#235a12debc)"><g clip-path="url(#30386671c3)"><g clip-path="url(#65e4dd29cc)"><path fill="#ffffff" d="M 154.738281 69.882812 C 155.296875 71.066406 155.589844 71.25 156.105469 71.917969 C 161.5625 70.988281 161.953125 68.765625 165.570312 68.316406 C 165.242188 67.179688 163.160156 64.546875 161.605469 63.980469 C 157.730469 65.4375 157.0625 66.382812 154.738281 69.882812 Z M 154.738281 69.882812 " fill-opacity="1" fill-rule="nonzero"/></g></g></g></g><g clip-path="url(#1ab81c7801)"><g clip-path="url(#b14c229d1b)"><g clip-path="url(#9909314d40)"><g clip-path="url(#a8f75ccba6)"><path stroke-linecap="butt" transform="matrix(0.242261, -0.028885, 0.0288641, 0.242086, 77.177205, 8.156799)" fill="none" stroke-linejoin="round" d="M 285.713816 289.065976 C 287.412896 294.157849 288.516163 295.047869 290.290575 298.018807 C 312.951359 296.882306 315.619732 288.019425 330.55936 287.946361 C 329.775522 283.157322 322.579429 271.423184 316.526839 268.361318 C 300.048887 272.413867 296.87159 275.939622 285.713816 289.065976 Z M 285.713816 289.065976 " stroke="#000000" stroke-width="3" stroke-opacity="1" stroke-miterlimit="4"/></g></g></g></g><g clip-path="url(#c9121a6044)"><g clip-path="url(#ab161e7399)"><g clip-path="url(#b9fbda9a6f)"><g clip-path="url(#3eaa01d5fd)"><path fill="#ffffff" d="M 164.023438 82.96875 C 164.582031 84.152344 165.113281 84.289062 165.628906 84.957031 C 171.085938 84.027344 171.535156 82.082031 175.152344 81.636719 C 174.820312 80.496094 172.742188 77.867188 171.1875 77.296875 C 167.308594 78.757812 166.347656 79.472656 164.023438 82.96875 Z M 164.023438 82.96875 " fill-opacity="1" fill-rule="nonzero"/></g></g></g></g><g clip-path="url(#2a5b125081)"><g clip-path="url(#3e3d8e72ec)"><g clip-path="url(#11b4b3332c)"><g clip-path="url(#034ce5b7f2)"><path stroke-linecap="butt" transform="matrix(0.242261, -0.028885, 0.0288641, 0.242086, 77.177205, 8.156799)" fill="none" stroke-linejoin="round" d="M 317.153539 346.87216 C 318.852618 351.964033 320.948416 352.778849 322.722828 355.749787 C 345.383613 354.613286 348.155874 346.908442 363.093606 346.851288 C 362.295766 342.044442 355.113675 330.328111 349.06298 327.250335 C 332.567234 331.316896 328.309418 333.761716 317.153539 346.87216 Z M 317.153539 346.87216 " stroke="#000000" stroke-width="3" stroke-opacity="1" stroke-miterlimit="4"/></g></g></g></g><g clip-path="url(#8ee421c278)"><g clip-path="url(#4e1db71003)"><g clip-path="url(#3de9167b10)"><g clip-path="url(#38dfa35bcd)"><path fill="#ffffff" d="M 174.894531 94.375 C 175.453125 95.558594 175.347656 96.054688 175.863281 96.722656 C 179.9375 92.667969 182.125 92.25 184.792969 89.722656 C 184.464844 88.582031 182.636719 86.625 181.082031 86.054688 C 177.207031 87.515625 177.21875 90.875 174.894531 94.375 Z M 174.894531 94.375 " fill-opacity="1" fill-rule="nonzero"/></g></g></g></g><g clip-path="url(#9dc0e9e57c)"><g clip-path="url(#460c538265)"><g clip-path="url(#ecc52b74db)"><g clip-path="url(#88927b9b09)"><path stroke-linecap="butt" transform="matrix(0.242261, -0.028885, 0.0288641, 0.242086, 77.177205, 8.156799)" fill="none" stroke-linejoin="round" d="M 355.862973 398.607355 C 357.562053 403.699228 356.89207 405.668533 358.666482 408.63947 C 377.215772 394.103768 386.321531 393.463711 398.406348 384.46578 C 397.624406 379.660831 391.133761 370.802357 385.083066 367.724581 C 368.603218 371.793039 367.020747 385.481001 355.862973 398.607355 Z M 355.862973 398.607355 " stroke="#000000" stroke-width="3" stroke-opacity="1" stroke-miterlimit="4"/></g></g></g></g><g clip-path="url(#c9056552d1)"><g clip-path="url(#b7f75872fd)"><g clip-path="url(#0d96ab1bf7)"><g clip-path="url(#228ba41978)"><path fill="#ffffff" d="M 187.042969 104.644531 C 187.601562 105.828125 187.894531 106.011719 188.410156 106.679688 C 192.355469 105.3125 194.625 101.378906 196.382812 100.050781 C 196.054688 98.914062 194.292969 97.933594 192.738281 97.363281 C 188.863281 98.824219 186.734375 102.761719 187.042969 104.644531 Z M 187.042969 104.644531 " fill-opacity="1" fill-rule="nonzero"/></g></g></g></g><g clip-path="url(#7f3f8470b3)"><g clip-path="url(#84813b64dd)"><g clip-path="url(#a0c68d4088)"><g clip-path="url(#d6f6eb6570)"><path stroke-linecap="butt" transform="matrix(0.242261, -0.028885, 0.0288641, 0.242086, 77.177205, 8.156799)" fill="none" stroke-linejoin="round" d="M 400.322688 446.333142 C 402.021768 451.425015 403.125035 452.315036 404.899447 455.285973 C 421.619967 451.63349 432.765573 436.714612 440.564202 432.158953 C 439.780364 427.369913 433.086102 422.521091 427.035407 419.443315 C 410.555559 423.511774 399.980389 438.51485 400.322688 446.333142 Z M 400.322688 446.333142 " stroke="#000000" stroke-width="3" stroke-opacity="1" stroke-miterlimit="4"/></g></g></g></g><g clip-path="url(#0a19b1d374)"><g clip-path="url(#1d0ddfde49)"><g clip-path="url(#f816732ba8)"><g clip-path="url(#0f8553bcd9)"><path fill="#ffffff" d="M 200.925781 111.527344 C 201.484375 112.710938 202.039062 112.757812 203.265625 112.878906 C 206.789062 110.234375 206.476562 107.601562 206.949219 105.398438 C 206.617188 104.261719 203.761719 104.003906 202.207031 103.433594 C 201.296875 106.601562 201.796875 109.21875 200.925781 111.527344 Z M 200.925781 111.527344 " fill-opacity="1" fill-rule="nonzero"/></g></g></g></g><g clip-path="url(#be952f8341)"><g clip-path="url(#4d263023dc)"><g clip-path="url(#77bdfac274)"><g clip-path="url(#4dc97bb69d)"><path stroke-linecap="butt" transform="matrix(0.242261, -0.028885, 0.0288641, 0.242086, 77.177205, 8.156799)" fill="none" stroke-linejoin="round" d="M 453.484594 481.107521 C 455.183674 486.199394 457.418457 486.659671 462.351699 487.7485 C 477.975067 478.688705 477.980813 467.81387 480.973568 459.070372 C 480.173832 454.279435 468.677427 451.842756 462.626732 448.764981 C 457.385191 461.2257 458.150135 472.127949 453.484594 481.107521 Z M 453.484594 481.107521 " stroke="#000000" stroke-width="3" stroke-opacity="1" stroke-miterlimit="4"/></g></g></g></g><g clip-path="url(#0d0b304515)"><g clip-path="url(#96a2d501e6)"><g clip-path="url(#36f0754971)"><g clip-path="url(#a0d2bf4074)"><path fill="#ffffff" d="M 215.796875 116 C 216.757812 116.421875 217.855469 116.550781 219.042969 116.460938 C 219.710938 113.261719 219.730469 110.6875 219.417969 108.457031 C 218.71875 107.5 215.828125 106.980469 214.171875 106.976562 C 215.535156 109.351562 215.824219 113.535156 215.792969 116 Z M 215.796875 116 " fill-opacity="1" fill-rule="nonzero"/></g></g></g></g><g clip-path="url(#88722d6433)"><g clip-path="url(#deae2a27bb)"><g clip-path="url(#47640633b6)"><g clip-path="url(#faa77f431d)"><path stroke-linecap="butt" transform="matrix(0.242261, -0.028885, 0.0288641, 0.242086, 77.177205, 8.156799)" fill="none" stroke-linejoin="round" d="M 511.838268 506.545584 C 515.544482 508.730464 519.949296 509.788514 524.825915 509.999255 C 529.096939 497.29365 530.42559 486.818697 530.236096 477.582552 C 527.854744 473.345148 516.342256 469.825452 509.603357 469.005251 C 513.999306 479.340322 513.145641 496.519894 511.82237 506.543687 Z M 511.838268 506.545584 " stroke="#000000" stroke-width="3" stroke-opacity="1" stroke-miterlimit="4"/></g></g></g></g><g clip-path="url(#59a1204654)"><g clip-path="url(#53599dc411)"><g clip-path="url(#2cc8eb91c1)"><g clip-path="url(#9fe7fcd5fd)"><path fill="#ffffff" d="M 231.070312 118.195312 C 232.144531 118.941406 232.753906 119.066406 233.875 118.554688 C 235.195312 116.015625 234.007812 113.34375 232.933594 112.179688 C 232.078125 111.355469 230.296875 111.132812 228.664062 111.417969 C 229.109375 113.726562 229.960938 115.816406 231.070312 118.195312 Z M 231.070312 118.195312 " fill-opacity="1" fill-rule="nonzero"/></g></g></g></g><g clip-path="url(#7f9c452d19)"><g clip-path="url(#a8c268b693)"><g clip-path="url(#07a28dc0ab)"><g clip-path="url(#194da05280)"><path stroke-linecap="butt" transform="matrix(0.242261, -0.028885, 0.0288641, 0.242086, 77.177205, 8.156799)" fill="none" stroke-linejoin="round" d="M 572.934546 522.903723 C 576.944476 526.464111 579.363922 527.269138 584.174993 525.729392 C 590.780652 516.029297 587.244179 504.570457 583.437073 499.30774 C 580.355348 495.535386 573.21386 493.763545 566.43008 494.132037 C 567.122199 503.750869 569.57387 512.676042 572.934546 522.903723 Z M 572.934546 522.903723 " stroke="#000000" stroke-width="3" stroke-opacity="1" stroke-miterlimit="4"/></g></g></g></g><g clip-path="url(#2e578f2a2d)"><g clip-path="url(#76944a2af5)"><g clip-path="url(#da5bda72d8)"><g clip-path="url(#7bc4d7c003)"><path fill="#ffffff" d="M 246.382812 119.765625 C 247.460938 120.511719 247.964844 120.273438 249.085938 119.761719 C 250.320312 117.820312 249.972656 116.726562 249.15625 115.097656 C 248.296875 114.273438 245.265625 113.949219 243.632812 114.234375 C 244.082031 115.550781 245.984375 117.328125 246.382812 119.765625 Z M 246.382812 119.765625 " fill-opacity="1" fill-rule="nonzero"/></g></g></g></g><g clip-path="url(#732a4e57b9)"><g clip-path="url(#d3d4b37d00)"><g clip-path="url(#810e53c47e)"><g clip-path="url(#fd013e52e4)"><path stroke-linecap="butt" transform="matrix(0.242261, -0.028885, 0.0288641, 0.242086, 77.177205, 8.156799)" fill="none" stroke-linejoin="round" d="M 634.493092 536.735292 C 638.51892 540.297577 640.685403 539.571792 645.496473 538.032047 C 651.462357 530.724391 650.578177 526.100873 648.045915 519.070107 C 644.948292 515.295857 632.768696 512.503354 625.984915 512.871846 C 627.1744 518.451532 634.054303 526.614205 634.493092 536.735292 Z M 634.493092 536.735292 " stroke="#000000" stroke-width="3" stroke-opacity="1" stroke-miterlimit="4"/></g></g></g></g><g fill="#ff7d1a" fill-opacity="1"><g transform="translate(108.01861, 216.384482)"><g><path d="M 14.921875 -12.046875 C 17.046875 -11.472656 18.632812 -10.71875 19.6875 -9.78125 C 20.75 -8.84375 21.28125 -7.617188 21.28125 -6.109375 C 21.28125 -4.910156 20.898438 -3.835938 20.140625 -2.890625 C 19.390625 -1.941406 18.285156 -1.195312 16.828125 -0.65625 C 15.367188 -0.125 13.601562 0.140625 11.53125 0.140625 C 9.082031 0.140625 6.921875 -0.175781 5.046875 -0.8125 C 3.179688 -1.445312 1.722656 -2.222656 0.671875 -3.140625 L 1.5625 -4.34375 C 2.488281 -3.613281 3.65625 -2.988281 5.0625 -2.46875 C 6.476562 -1.945312 8 -1.6875 9.625 -1.6875 C 10.6875 -1.6875 11.488281 -1.835938 12.03125 -2.140625 C 12.570312 -2.453125 12.84375 -2.882812 12.84375 -3.4375 C 12.84375 -4.394531 11.890625 -5.144531 9.984375 -5.6875 L 6.5 -6.703125 C 4.601562 -7.273438 3.140625 -8.070312 2.109375 -9.09375 C 1.078125 -10.113281 0.5625 -11.320312 0.5625 -12.71875 C 0.5625 -13.875 0.925781 -14.925781 1.65625 -15.875 C 2.394531 -16.820312 3.460938 -17.566406 4.859375 -18.109375 C 6.265625 -18.660156 7.953125 -18.9375 9.921875 -18.9375 C 11.804688 -18.9375 13.535156 -18.722656 15.109375 -18.296875 C 16.691406 -17.867188 17.988281 -17.347656 19 -16.734375 L 18.109375 -15.5 C 17.265625 -15.988281 16.253906 -16.398438 15.078125 -16.734375 C 13.910156 -17.078125 12.6875 -17.25 11.40625 -17.25 C 10.28125 -17.25 9.414062 -17.070312 8.8125 -16.71875 C 8.21875 -16.375 7.921875 -15.898438 7.921875 -15.296875 C 7.921875 -14.828125 8.140625 -14.414062 8.578125 -14.0625 C 9.023438 -13.71875 9.878906 -13.375 11.140625 -13.03125 Z M 14.921875 -12.046875 "/></g></g></g><g fill="#ff7d1a" fill-opacity="1"><g transform="translate(129.878646, 216.384482)"><g><path d="M 0.75 -18.78125 L 9.875 -18.78125 L 9.875 -10.375 L 15.796875 -10.375 L 15.796875 -18.78125 L 24.921875 -18.78125 L 24.921875 0 L 15.796875 0 L 15.796875 -8.578125 L 9.875 -8.578125 L 9.875 0 L 0.75 0 Z M 0.75 -18.78125 "/></g></g></g><g fill="#ff7d1a" fill-opacity="1"><g transform="translate(155.547426, 216.384482)"><g><path d="M 13.3125 0.140625 C 10.914062 0.140625 8.75 -0.222656 6.8125 -0.953125 C 4.882812 -1.691406 3.359375 -2.78125 2.234375 -4.21875 C 1.117188 -5.664062 0.5625 -7.398438 0.5625 -9.421875 C 0.5625 -11.421875 1.125 -13.132812 2.25 -14.5625 C 3.375 -16 4.898438 -17.085938 6.828125 -17.828125 C 8.753906 -18.566406 10.914062 -18.9375 13.3125 -18.9375 C 15.6875 -18.9375 17.832031 -18.566406 19.75 -17.828125 C 21.675781 -17.085938 23.195312 -16 24.3125 -14.5625 C 25.4375 -13.132812 26 -11.421875 26 -9.421875 C 26 -7.398438 25.4375 -5.664062 24.3125 -4.21875 C 23.195312 -2.78125 21.675781 -1.691406 19.75 -0.953125 C 17.832031 -0.222656 15.6875 0.140625 13.3125 0.140625 Z M 13.3125 -1.453125 C 14.0625 -1.453125 14.613281 -1.789062 14.96875 -2.46875 C 15.269531 -2.988281 15.476562 -3.910156 15.59375 -5.234375 C 15.644531 -5.929688 15.671875 -7.328125 15.671875 -9.421875 C 15.671875 -11.523438 15.625 -13.015625 15.53125 -13.890625 C 15.476562 -14.960938 15.28125 -15.78125 14.9375 -16.34375 C 14.582031 -17.019531 14.039062 -17.359375 13.3125 -17.359375 C 12.5625 -17.359375 11.992188 -17.019531 11.609375 -16.34375 C 11.304688 -15.800781 11.113281 -14.984375 11.03125 -13.890625 C 10.957031 -12.960938 10.921875 -11.472656 10.921875 -9.421875 C 10.921875 -7.085938 10.945312 -5.691406 11 -5.234375 C 11.070312 -3.992188 11.269531 -3.070312 11.59375 -2.46875 C 11.96875 -1.789062 12.539062 -1.453125 13.3125 -1.453125 Z M 13.3125 -1.453125 "/></g></g></g><g fill="#ff7d1a" fill-opacity="1"><g transform="translate(182.101335, 216.384482)"><g><path d="M 0.75 -18.78125 L 20.25 -18.78125 L 20.25 -17.203125 L 10.1875 -17.203125 L 10.1875 -10.25 L 15.125 -10.25 L 15.125 -8.640625 L 10.1875 -8.640625 L 10.1875 -1.609375 L 20.25 -1.609375 L 20.25 0 L 0.75 0 Z M 0.75 -18.78125 "/></g></g></g><g fill="#ff7d1a" fill-opacity="1"><g transform="translate(203.129883, 216.384482)"><g><path d="M 9.015625 -3.78125 L 0.375 -3.78125 L 11.59375 -18.78125 L 17.953125 -18.78125 L 17.953125 -5.390625 L 21.890625 -5.390625 L 21.890625 -3.78125 L 17.953125 -3.78125 L 17.953125 0 L 9.015625 0 Z M 9.015625 -5.390625 L 9.015625 -12.3125 L 3.921875 -5.390625 Z M 9.015625 -5.390625 "/></g></g></g><g fill="#ff7d1a" fill-opacity="1"><g transform="translate(225.580011, 216.384482)"><g><path d="M 9.765625 0.140625 C 6.523438 0.140625 4.210938 -0.332031 2.828125 -1.28125 C 1.441406 -2.226562 0.75 -3.679688 0.75 -5.640625 L 0.75 -18.78125 L 11 -18.78125 L 11 -5.640625 C 11 -4.367188 11.28125 -3.441406 11.84375 -2.859375 C 12.40625 -2.273438 13.148438 -1.984375 14.078125 -1.984375 C 16.160156 -1.984375 17.203125 -3.203125 17.203125 -5.640625 L 17.203125 -18.78125 L 18.78125 -18.78125 L 18.78125 -5.640625 C 18.78125 -4.117188 18.457031 -2.941406 17.8125 -2.109375 C 17.164062 -1.273438 16.195312 -0.691406 14.90625 -0.359375 C 13.625 -0.0234375 11.910156 0.140625 9.765625 0.140625 Z M 9.765625 0.140625 "/></g></g></g><g fill="#ff7d1a" fill-opacity="1"><g transform="translate(245.106523, 216.384482)"><g><path d="M 14.921875 -12.046875 C 17.046875 -11.472656 18.632812 -10.71875 19.6875 -9.78125 C 20.75 -8.84375 21.28125 -7.617188 21.28125 -6.109375 C 21.28125 -4.910156 20.898438 -3.835938 20.140625 -2.890625 C 19.390625 -1.941406 18.285156 -1.195312 16.828125 -0.65625 C 15.367188 -0.125 13.601562 0.140625 11.53125 0.140625 C 9.082031 0.140625 6.921875 -0.175781 5.046875 -0.8125 C 3.179688 -1.445312 1.722656 -2.222656 0.671875 -3.140625 L 1.5625 -4.34375 C 2.488281 -3.613281 3.65625 -2.988281 5.0625 -2.46875 C 6.476562 -1.945312 8 -1.6875 9.625 -1.6875 C 10.6875 -1.6875 11.488281 -1.835938 12.03125 -2.140625 C 12.570312 -2.453125 12.84375 -2.882812 12.84375 -3.4375 C 12.84375 -4.394531 11.890625 -5.144531 9.984375 -5.6875 L 6.5 -6.703125 C 4.601562 -7.273438 3.140625 -8.070312 2.109375 -9.09375 C 1.078125 -10.113281 0.5625 -11.320312 0.5625 -12.71875 C 0.5625 -13.875 0.925781 -14.925781 1.65625 -15.875 C 2.394531 -16.820312 3.460938 -17.566406 4.859375 -18.109375 C 6.265625 -18.660156 7.953125 -18.9375 9.921875 -18.9375 C 11.804688 -18.9375 13.535156 -18.722656 15.109375 -18.296875 C 16.691406 -17.867188 17.988281 -17.347656 19 -16.734375 L 18.109375 -15.5 C 17.265625 -15.988281 16.253906 -16.398438 15.078125 -16.734375 C 13.910156 -17.078125 12.6875 -17.25 11.40625 -17.25 C 10.28125 -17.25 9.414062 -17.070312 8.8125 -16.71875 C 8.21875 -16.375 7.921875 -15.898438 7.921875 -15.296875 C 7.921875 -14.828125 8.140625 -14.414062 8.578125 -14.0625 C 9.023438 -13.71875 9.878906 -13.375 11.140625 -13.03125 Z M 14.921875 -12.046875 "/></g></g></g><g fill="#000000" fill-opacity="1"><g transform="translate(141.35027, 257.082078)"><g><path d="M 4.140625 0.1875 C 3.503906 0.1875 2.894531 0.078125 2.3125 -0.140625 C 1.726562 -0.367188 1.257812 -0.695312 0.90625 -1.125 L 1.734375 -2.265625 C 2.085938 -1.921875 2.453125 -1.660156 2.828125 -1.484375 C 3.210938 -1.304688 3.59375 -1.21875 3.96875 -1.21875 C 4.4375 -1.21875 4.816406 -1.304688 5.109375 -1.484375 C 5.398438 -1.660156 5.546875 -1.941406 5.546875 -2.328125 C 5.546875 -2.617188 5.453125 -2.851562 5.265625 -3.03125 C 5.085938 -3.21875 4.882812 -3.351562 4.65625 -3.4375 C 4.425781 -3.519531 4.039062 -3.644531 3.5 -3.8125 C 2.019531 -4.28125 1.28125 -5.125 1.28125 -6.34375 C 1.28125 -7.0625 1.546875 -7.675781 2.078125 -8.1875 C 2.617188 -8.707031 3.367188 -8.96875 4.328125 -8.96875 C 4.941406 -8.96875 5.484375 -8.890625 5.953125 -8.734375 C 6.429688 -8.585938 6.875 -8.347656 7.28125 -8.015625 L 6.5 -6.828125 C 6.28125 -7.054688 6 -7.238281 5.65625 -7.375 C 5.3125 -7.519531 4.988281 -7.597656 4.6875 -7.609375 C 4.289062 -7.609375 3.953125 -7.515625 3.671875 -7.328125 C 3.398438 -7.140625 3.265625 -6.882812 3.265625 -6.5625 C 3.265625 -6.300781 3.351562 -6.082031 3.53125 -5.90625 C 3.71875 -5.738281 3.90625 -5.613281 4.09375 -5.53125 C 4.289062 -5.457031 4.675781 -5.328125 5.25 -5.140625 C 5.957031 -4.910156 6.507812 -4.601562 6.90625 -4.21875 C 7.3125 -3.84375 7.515625 -3.335938 7.515625 -2.703125 C 7.515625 -1.859375 7.21875 -1.164062 6.625 -0.625 C 6.039062 -0.0820312 5.210938 0.1875 4.140625 0.1875 Z M 4.140625 0.1875 "/></g></g></g><g fill="#000000" fill-opacity="1"><g transform="translate(149.883735, 257.082078)"><g><path d="M 7.078125 -9 C 7.878906 -9 8.546875 -8.753906 9.078125 -8.265625 C 9.609375 -7.785156 9.878906 -7.164062 9.890625 -6.40625 L 9.890625 0 L 7.921875 0 L 7.921875 -5.734375 C 7.898438 -6.222656 7.753906 -6.601562 7.484375 -6.875 C 7.222656 -7.15625 6.828125 -7.304688 6.296875 -7.328125 C 5.796875 -7.328125 5.34375 -7.1875 4.9375 -6.90625 C 4.53125 -6.625 4.210938 -6.234375 3.984375 -5.734375 C 3.753906 -5.234375 3.640625 -4.675781 3.640625 -4.0625 L 3.640625 0 L 1.6875 0 L 1.6875 -16.21875 L 3.59375 -16.21875 L 3.59375 -7.09375 C 3.914062 -7.664062 4.378906 -8.125 4.984375 -8.46875 C 5.597656 -8.820312 6.296875 -9 7.078125 -9 Z M 7.078125 -9 "/></g></g></g><g fill="#000000" fill-opacity="1"><g transform="translate(161.449923, 257.082078)"><g><path d="M 0.9375 -4.421875 C 0.9375 -5.265625 1.140625 -6.035156 1.546875 -6.734375 C 1.960938 -7.441406 2.535156 -8 3.265625 -8.40625 C 4.003906 -8.8125 4.832031 -9.015625 5.75 -9.015625 C 6.675781 -9.015625 7.5 -8.8125 8.21875 -8.40625 C 8.9375 -8 9.492188 -7.445312 9.890625 -6.75 C 10.285156 -6.0625 10.484375 -5.285156 10.484375 -4.421875 C 10.484375 -3.554688 10.285156 -2.769531 9.890625 -2.0625 C 9.492188 -1.351562 8.929688 -0.796875 8.203125 -0.390625 C 7.472656 0.00390625 6.644531 0.203125 5.71875 0.203125 C 4.8125 0.203125 3.992188 0.015625 3.265625 -0.359375 C 2.535156 -0.742188 1.960938 -1.285156 1.546875 -1.984375 C 1.140625 -2.679688 0.9375 -3.492188 0.9375 -4.421875 Z M 2.90625 -4.390625 C 2.90625 -3.847656 3.023438 -3.347656 3.265625 -2.890625 C 3.515625 -2.429688 3.851562 -2.066406 4.28125 -1.796875 C 4.707031 -1.535156 5.175781 -1.40625 5.6875 -1.40625 C 6.5 -1.40625 7.171875 -1.691406 7.703125 -2.265625 C 8.234375 -2.835938 8.5 -3.546875 8.5 -4.390625 C 8.5 -5.242188 8.234375 -5.957031 7.703125 -6.53125 C 7.171875 -7.113281 6.5 -7.40625 5.6875 -7.40625 C 5.15625 -7.40625 4.679688 -7.269531 4.265625 -7 C 3.847656 -6.726562 3.515625 -6.359375 3.265625 -5.890625 C 3.023438 -5.429688 2.90625 -4.929688 2.90625 -4.390625 Z M 2.90625 -4.390625 "/></g></g></g><g fill="#000000" fill-opacity="1"><g transform="translate(172.848791, 257.082078)"><g><path d="M 5.75 -1.46875 C 6.476562 -1.46875 7.179688 -1.71875 7.859375 -2.21875 L 8.765625 -0.78125 C 8.304688 -0.46875 7.804688 -0.222656 7.265625 -0.046875 C 6.734375 0.117188 6.21875 0.203125 5.71875 0.203125 C 4.75 0.203125 3.90625 0.00390625 3.1875 -0.390625 C 2.46875 -0.785156 1.910156 -1.332031 1.515625 -2.03125 C 1.128906 -2.726562 0.9375 -3.515625 0.9375 -4.390625 C 0.9375 -5.242188 1.148438 -6.019531 1.578125 -6.71875 C 2.003906 -7.425781 2.585938 -7.984375 3.328125 -8.390625 C 4.066406 -8.804688 4.875 -9.015625 5.75 -9.015625 C 6.882812 -9.015625 7.832031 -8.679688 8.59375 -8.015625 C 9.351562 -7.359375 9.867188 -6.4375 10.140625 -5.25 L 3.28125 -2.84375 C 3.53125 -2.414062 3.867188 -2.078125 4.296875 -1.828125 C 4.722656 -1.585938 5.207031 -1.46875 5.75 -1.46875 Z M 5.609375 -7.46875 C 4.816406 -7.46875 4.160156 -7.1875 3.640625 -6.625 C 3.117188 -6.070312 2.859375 -5.363281 2.859375 -4.5 C 2.859375 -4.289062 2.867188 -4.128906 2.890625 -4.015625 L 7.921875 -5.875 C 7.710938 -6.351562 7.414062 -6.738281 7.03125 -7.03125 C 6.65625 -7.320312 6.179688 -7.46875 5.609375 -7.46875 Z M 5.609375 -7.46875 "/></g></g></g><g fill="#000000" fill-opacity="1"><g transform="translate(183.72477, 257.082078)"><g><path d="M 4.140625 0.1875 C 3.503906 0.1875 2.894531 0.078125 2.3125 -0.140625 C 1.726562 -0.367188 1.257812 -0.695312 0.90625 -1.125 L 1.734375 -2.265625 C 2.085938 -1.921875 2.453125 -1.660156 2.828125 -1.484375 C 3.210938 -1.304688 3.59375 -1.21875 3.96875 -1.21875 C 4.4375 -1.21875 4.816406 -1.304688 5.109375 -1.484375 C 5.398438 -1.660156 5.546875 -1.941406 5.546875 -2.328125 C 5.546875 -2.617188 5.453125 -2.851562 5.265625 -3.03125 C 5.085938 -3.21875 4.882812 -3.351562 4.65625 -3.4375 C 4.425781 -3.519531 4.039062 -3.644531 3.5 -3.8125 C 2.019531 -4.28125 1.28125 -5.125 1.28125 -6.34375 C 1.28125 -7.0625 1.546875 -7.675781 2.078125 -8.1875 C 2.617188 -8.707031 3.367188 -8.96875 4.328125 -8.96875 C 4.941406 -8.96875 5.484375 -8.890625 5.953125 -8.734375 C 6.429688 -8.585938 6.875 -8.347656 7.28125 -8.015625 L 6.5 -6.828125 C 6.28125 -7.054688 6 -7.238281 5.65625 -7.375 C 5.3125 -7.519531 4.988281 -7.597656 4.6875 -7.609375 C 4.289062 -7.609375 3.953125 -7.515625 3.671875 -7.328125 C 3.398438 -7.140625 3.265625 -6.882812 3.265625 -6.5625 C 3.265625 -6.300781 3.351562 -6.082031 3.53125 -5.90625 C 3.71875 -5.738281 3.90625 -5.613281 4.09375 -5.53125 C 4.289062 -5.457031 4.675781 -5.328125 5.25 -5.140625 C 5.957031 -4.910156 6.507812 -4.601562 6.90625 -4.21875 C 7.3125 -3.84375 7.515625 -3.335938 7.515625 -2.703125 C 7.515625 -1.859375 7.21875 -1.164062 6.625 -0.625 C 6.039062 -0.0820312 5.210938 0.1875 4.140625 0.1875 Z M 4.140625 0.1875 "/></g></g></g><g fill="#000000" fill-opacity="1"><g transform="translate(192.258235, 257.082078)"><g/></g></g><g fill="#000000" fill-opacity="1"><g transform="translate(198.867487, 257.082078)"><g><path d="M 4.140625 0.1875 C 3.503906 0.1875 2.894531 0.078125 2.3125 -0.140625 C 1.726562 -0.367188 1.257812 -0.695312 0.90625 -1.125 L 1.734375 -2.265625 C 2.085938 -1.921875 2.453125 -1.660156 2.828125 -1.484375 C 3.210938 -1.304688 3.59375 -1.21875 3.96875 -1.21875 C 4.4375 -1.21875 4.816406 -1.304688 5.109375 -1.484375 C 5.398438 -1.660156 5.546875 -1.941406 5.546875 -2.328125 C 5.546875 -2.617188 5.453125 -2.851562 5.265625 -3.03125 C 5.085938 -3.21875 4.882812 -3.351562 4.65625 -3.4375 C 4.425781 -3.519531 4.039062 -3.644531 3.5 -3.8125 C 2.019531 -4.28125 1.28125 -5.125 1.28125 -6.34375 C 1.28125 -7.0625 1.546875 -7.675781 2.078125 -8.1875 C 2.617188 -8.707031 3.367188 -8.96875 4.328125 -8.96875 C 4.941406 -8.96875 5.484375 -8.890625 5.953125 -8.734375 C 6.429688 -8.585938 6.875 -8.347656 7.28125 -8.015625 L 6.5 -6.828125 C 6.28125 -7.054688 6 -7.238281 5.65625 -7.375 C 5.3125 -7.519531 4.988281 -7.597656 4.6875 -7.609375 C 4.289062 -7.609375 3.953125 -7.515625 3.671875 -7.328125 C 3.398438 -7.140625 3.265625 -6.882812 3.265625 -6.5625 C 3.265625 -6.300781 3.351562 -6.082031 3.53125 -5.90625 C 3.71875 -5.738281 3.90625 -5.613281 4.09375 -5.53125 C 4.289062 -5.457031 4.675781 -5.328125 5.25 -5.140625 C 5.957031 -4.910156 6.507812 -4.601562 6.90625 -4.21875 C 7.3125 -3.84375 7.515625 -3.335938 7.515625 -2.703125 C 7.515625 -1.859375 7.21875 -1.164062 6.625 -0.625 C 6.039062 -0.0820312 5.210938 0.1875 4.140625 0.1875 Z M 4.140625 0.1875 "/></g></g></g><g fill="#000000" fill-opacity="1"><g transform="translate(207.400952, 257.082078)"><g><path d="M 4.5 -12.46875 L 4.5 -8.640625 L 6.859375 -8.640625 L 6.859375 -7.09375 L 4.5 -7.09375 L 4.5 0 L 2.53125 0 L 2.53125 -7.09375 L 0.9375 -7.09375 L 0.9375 -8.640625 L 2.53125 -8.640625 L 2.53125 -12.46875 Z M 4.5 -12.46875 "/></g></g></g><g fill="#000000" fill-opacity="1"><g transform="translate(214.930476, 257.082078)"><g><path d="M 0.9375 -4.421875 C 0.9375 -5.265625 1.140625 -6.035156 1.546875 -6.734375 C 1.960938 -7.441406 2.535156 -8 3.265625 -8.40625 C 4.003906 -8.8125 4.832031 -9.015625 5.75 -9.015625 C 6.675781 -9.015625 7.5 -8.8125 8.21875 -8.40625 C 8.9375 -8 9.492188 -7.445312 9.890625 -6.75 C 10.285156 -6.0625 10.484375 -5.285156 10.484375 -4.421875 C 10.484375 -3.554688 10.285156 -2.769531 9.890625 -2.0625 C 9.492188 -1.351562 8.929688 -0.796875 8.203125 -0.390625 C 7.472656 0.00390625 6.644531 0.203125 5.71875 0.203125 C 4.8125 0.203125 3.992188 0.015625 3.265625 -0.359375 C 2.535156 -0.742188 1.960938 -1.285156 1.546875 -1.984375 C 1.140625 -2.679688 0.9375 -3.492188 0.9375 -4.421875 Z M 2.90625 -4.390625 C 2.90625 -3.847656 3.023438 -3.347656 3.265625 -2.890625 C 3.515625 -2.429688 3.851562 -2.066406 4.28125 -1.796875 C 4.707031 -1.535156 5.175781 -1.40625 5.6875 -1.40625 C 6.5 -1.40625 7.171875 -1.691406 7.703125 -2.265625 C 8.234375 -2.835938 8.5 -3.546875 8.5 -4.390625 C 8.5 -5.242188 8.234375 -5.957031 7.703125 -6.53125 C 7.171875 -7.113281 6.5 -7.40625 5.6875 -7.40625 C 5.15625 -7.40625 4.679688 -7.269531 4.265625 -7 C 3.847656 -6.726562 3.515625 -6.359375 3.265625 -5.890625 C 3.023438 -5.429688 2.90625 -4.929688 2.90625 -4.390625 Z M 2.90625 -4.390625 "/></g></g></g><g fill="#000000" fill-opacity="1"><g transform="translate(226.329343, 257.082078)"><g><path d="M 3.578125 -6.609375 C 3.796875 -7.085938 4.109375 -7.503906 4.515625 -7.859375 C 4.929688 -8.222656 5.367188 -8.503906 5.828125 -8.703125 C 6.296875 -8.898438 6.703125 -9.003906 7.046875 -9.015625 L 6.96875 -7.078125 C 6.34375 -7.097656 5.773438 -6.96875 5.265625 -6.6875 C 4.753906 -6.414062 4.351562 -6.03125 4.0625 -5.53125 C 3.78125 -5.039062 3.640625 -4.515625 3.640625 -3.953125 L 3.640625 0 L 1.6875 0 L 1.6875 -8.65625 L 3.4375 -8.65625 Z M 3.578125 -6.609375 "/></g></g></g><g fill="#000000" fill-opacity="1"><g transform="translate(234.193517, 257.082078)"><g><path d="M 5.75 -1.46875 C 6.476562 -1.46875 7.179688 -1.71875 7.859375 -2.21875 L 8.765625 -0.78125 C 8.304688 -0.46875 7.804688 -0.222656 7.265625 -0.046875 C 6.734375 0.117188 6.21875 0.203125 5.71875 0.203125 C 4.75 0.203125 3.90625 0.00390625 3.1875 -0.390625 C 2.46875 -0.785156 1.910156 -1.332031 1.515625 -2.03125 C 1.128906 -2.726562 0.9375 -3.515625 0.9375 -4.390625 C 0.9375 -5.242188 1.148438 -6.019531 1.578125 -6.71875 C 2.003906 -7.425781 2.585938 -7.984375 3.328125 -8.390625 C 4.066406 -8.804688 4.875 -9.015625 5.75 -9.015625 C 6.882812 -9.015625 7.832031 -8.679688 8.59375 -8.015625 C 9.351562 -7.359375 9.867188 -6.4375 10.140625 -5.25 L 3.28125 -2.84375 C 3.53125 -2.414062 3.867188 -2.078125 4.296875 -1.828125 C 4.722656 -1.585938 5.207031 -1.46875 5.75 -1.46875 Z M 5.609375 -7.46875 C 4.816406 -7.46875 4.160156 -7.1875 3.640625 -6.625 C 3.117188 -6.070312 2.859375 -5.363281 2.859375 -4.5 C 2.859375 -4.289062 2.867188 -4.128906 2.890625 -4.015625 L 7.921875 -5.875 C 7.710938 -6.351562 7.414062 -6.738281 7.03125 -7.03125 C 6.65625 -7.320312 6.179688 -7.46875 5.609375 -7.46875 Z M 5.609375 -7.46875 "/></g></g></g><path stroke-linecap="round" transform="matrix(1.067525, 0, 0, 1.067525, 59.914263, 211.553247)" fill="none" stroke-linejoin="miter" d="M 2.499022 2.500559 L 14.497423 2.500559 " stroke="#000000" stroke-width="5" stroke-opacity="1" stroke-miterlimit="4"/><path stroke-linecap="round" transform="matrix(1.067525, 0, 0, 1.067525, 59.914263, 252.977825)" fill="none" stroke-linejoin="miter" d="M 2.499022 2.501686 L 71.258385 2.501686 " stroke="#000000" stroke-width="5" stroke-opacity="1" stroke-miterlimit="4"/><path stroke-linecap="round" transform="matrix(0, -1.067525, 1.067525, 0, 59.910291, 258.311467)" fill="none" stroke-linejoin="miter" d="M 2.498242 2.499083 L 39.803426 2.499083 " stroke="#000000" stroke-width="5" stroke-opacity="1" stroke-miterlimit="4"/><path stroke-linecap="round" transform="matrix(1.067525, 0, 0, 1.067525, 308.489516, 211.553247)" fill="none" stroke-linejoin="miter" d="M 2.501712 2.500559 L 14.500113 2.500559 " stroke="#000000" stroke-width="5" stroke-opacity="1" stroke-miterlimit="4"/><path stroke-linecap="round" transform="matrix(1.067525, 0, 0, 1.067525, 245.229524, 252.977825)" fill="none" stroke-linejoin="miter" d="M 2.500095 2.501686 L 71.255799 2.501686 " stroke="#000000" stroke-width="5" stroke-opacity="1" stroke-miterlimit="4"/><path stroke-linecap="round" transform="matrix(0, -1.067525, 1.067525, 0, 321.294768, 258.311467)" fill="none" stroke-linejoin="miter" d="M 2.498242 2.501183 L 39.803426 2.501183 " stroke="#000000" stroke-width="5" stroke-opacity="1" stroke-miterlimit="4"/></svg>